<svg xmlns="http://www.w3.org/2000/svg" viewBox="120 120 960 240" class="Logo text" height="50"><path d="M295.3,314.9A91.89,91.89,0,0,1,165.8,185.4l-8.4-10.7A105.32,105.32,0,0,0,306.1,323.4Z"></path><path d="M207.1,157.4a93,93,0,0,1,28.9-4.6,91.84,91.84,0,0,1,91.9,91.9,93,93,0,0,1-4.6,28.9L333.7,284a105.32,105.32,0,0,0-137-137Z"></path><path d="M219.5,189.1,162.3,130l-8.9,13.9a3.62,3.62,0,0,0,.3,4.2l49.6,63.7Z"></path><path d="M200.9,267.2l-23-17.3-4.2,7.1a2,2,0,0,0,.3,2.5l19.4,21Z"></path><path d="M242.2,212.6l-5.3-5.5,1.4-5.6a16.2,16.2,0,0,0,.6-5.7,22.11,22.11,0,0,0-2.5-6.3l-50.2,53.8s3.4,3.3,8.3-.5c2.2-1.7,10.9-8.8,20.2-16.5l8.5,10.9Z"></path><path d="M291.2,260.8l1.4-5.6a12,12,0,0,0,.6-4.6,23.55,23.55,0,0,0-2-6.3l-53.8,50.2s3.3,3.4,8.4,0c2.5-1.7,13.1-9.1,23.7-16.7L332.7,327a3.62,3.62,0,0,0,4.2.3l13.9-8.9Z"></path><path d="M213.8,280.3c8.1-6.2,19.4-14.9,29.5-22.7l11.4,8.9,18.7-22.7-6.2-6,2-7.1c1-3.6,1.4-6.4,1.1-8.1a30.19,30.19,0,0,0-3.3-9l-74,74s2.3,1.9,7.1,0L221,306.9a2.29,2.29,0,0,0,2.5.3l7.1-4.2Z"></path><path d="M646.7,254.4v-40.6H633l-4.7,4.7v0c-5.2-3-11.2-4.8-18.1-4.8c-22.4,0-36.5,18.2-36.5,40.6c0,22.4,14.1,40.6,36.5,40.6c6.9,0,13-1.7,18.1-4.8v0l4.6,4.6h13.8V254.4C646.7,254.4,646.7,254.4,646.7,254.4C646.7,254.4,646.7,254.4,646.7,254.4z M610.1,276.6c-13.4,0-18.1-12-18.1-22.2c0-10.3,4.8-22.2,18.1-22.2c13.4,0,18.1,12,18.1,22.2v0C628.3,264.6,623.5,276.6,610.1,276.6z"></path><path d="M527,213.8c-22.8,0-37.1,18.2-37.1,40.6c0,22.4,14.3,40.6,37.1,40.6c22.8,0,37.1-18.2,37.1-40.6C564.1,231.9,549.8,213.8,527,213.8z M527,276.6c-13.6,0-18.4-12-18.4-22.2c0-10.3,4.8-22.2,18.4-22.2c13.6,0,18.4,12,18.4,22.2C545.4,264.6,540.6,276.6,527,276.6z"></path><rect x="459.3" y="179.2" width="19.9" height="115.8"></rect><path d="M437,179.2c-17.9,0-29.1,14.6-29.1,32.5v5.4h-6.6v16.3h6.6V295h18.4v-61.6h14.4v-16.3h-14.4v-5.4c0-2.4,0.5-14.1,10.8-14.1h9.8v-18.4L437,179.2z"></path><path d="M695.3,276.6c-10.3,0-10.8-11.8-10.8-14.1l0-32.3h12.3v-16.3h-12.3v-15.5h-18.4v15.5h-6.8v16.3h6.8l0,32.3c0,17.9,11.2,32.4,29.1,32.5l7.6,0v-18.4L695.3,276.6z"></path><path d="M751.8,213.6c-7.3,0-13.7,1.9-19,5.3l-3.8-5.2h-13.8V325h18.4v-34.9c5.2,3,11.2,4.8,18.1,4.8c22.4,0,36.5-18.2,36.5-40.6C788.3,231.8,774.2,213.6,751.8,213.6z M751.8,276.5c-13.4,0-18.1-12-18.1-22.2s4.8-22.2,18.1-22.2c13.4,0,18.1,12,18.1,22.2S765.2,276.5,751.8,276.5z"></path><path d="M902.7,254.4v-40.6h-13.7l-4.7,4.7v0c-5.2-3-11.2-4.8-18.1-4.8c-22.4,0-36.5,18.2-36.5,40.6c0,22.4,14.1,40.6,36.5,40.6c6.9,0,13-1.7,18.1-4.8v0l4.6,4.6h13.8V254.4L902.7,254.4C902.7,254.4,902.7,254.4,902.7,254.4z M866.2,276.6c-13.4,0-18.1-12-18.1-22.2c0-10.3,4.8-22.2,18.1-22.2c13.4,0,18.1,12,18.1,22.2v0C884.3,264.6,879.6,276.6,866.2,276.6z"></path><rect x="799" y="179.2" width="19.9" height="115.8"></rect><path d="M955.8,213.8c-9.9,0-17.1,1.7-22.2,4.8v0l-4.6-4.6h-13.8V295h18.4c0,0,0-44.2,0-44.3c0-11.2,6.8-17.9,17.1-17.8c12.5,0,17.1,7.8,17.1,17.8l0,44.3h18.4v-48.7h0C986.2,228.3,973.7,213.8,955.8,213.8z"></path><path d="M1069.3,253.4c-0.1-3.2-0.4-6.3-1.1-9.3l0,0h0c-3.6-17.5-16.5-30.4-35.4-30.4c-22.4,0-36.5,18.2-36.5,40.6c0,22.4,14.1,40.6,36.5,40.6c12.6,0,25.9-6.7,32.5-15.7l-13.3-13.3c-3.1,5.6-11.2,10.7-19.1,10.7c-10.8,0-15.9-7.7-17.6-16.1h53.5c0.3-1.8,0.5-3.9,0.5-6L1069.3,253.4z M1016.4,244.2c2.4-6.6,7.5-12,16.4-12c9,0,14.1,5.4,16.4,12H1016.4z"></path></svg>
