<svg id="Group_42" data-name="Group 42" xmlns="http://www.w3.org/2000/svg" xmlns:xlink="http://www.w3.org/1999/xlink" width="286.476" height="97.588" viewBox="0 0 286.476 97.588">
  <defs>
    <clipPath id="clip-path">
      <rect id="Rectangle_51" data-name="Rectangle 51" width="286.476" height="97.588" fill="none"/>
    </clipPath>
    <clipPath id="clip-path-2">
      <rect id="Rectangle_38" data-name="Rectangle 38" width="286.476" height="97.588" transform="translate(0 0)" fill="none"/>
    </clipPath>
    <clipPath id="clip-path-3">
      <rect id="Rectangle_41" data-name="Rectangle 41" width="48.043" height="48.043" transform="translate(7.225 6.006)" fill="none"/>
    </clipPath>
    <clipPath id="clip-path-4">
      <rect id="Rectangle_40" data-name="Rectangle 40" width="48.24" height="48.24" transform="translate(7.177 5.93)" fill="none"/>
    </clipPath>
    <clipPath id="clip-path-5">
      <rect id="Rectangle_39" data-name="Rectangle 39" width="48.24" height="48.24" transform="translate(7.177 5.931)" fill="none"/>
    </clipPath>
    <clipPath id="clip-path-6">
      <rect id="Rectangle_44" data-name="Rectangle 44" width="48.043" height="48.043" transform="translate(80.791 6.006)" fill="none"/>
    </clipPath>
    <clipPath id="clip-path-7">
      <rect id="Rectangle_43" data-name="Rectangle 43" width="48.24" height="48.24" transform="translate(80.617 5.93)" fill="none"/>
    </clipPath>
    <clipPath id="clip-path-8">
      <rect id="Rectangle_42" data-name="Rectangle 42" width="48.24" height="48.24" transform="translate(80.617 5.931)" fill="none"/>
    </clipPath>
    <clipPath id="clip-path-9">
      <rect id="Rectangle_47" data-name="Rectangle 47" width="48.043" height="48.043" transform="translate(153.607 6.006)" fill="none"/>
    </clipPath>
    <clipPath id="clip-path-10">
      <rect id="Rectangle_46" data-name="Rectangle 46" width="48.24" height="48.24" transform="translate(153.577 5.93)" fill="none"/>
    </clipPath>
    <clipPath id="clip-path-11">
      <rect id="Rectangle_45" data-name="Rectangle 45" width="48.24" height="48.24" transform="translate(153.577 5.931)" fill="none"/>
    </clipPath>
    <clipPath id="clip-path-12">
      <rect id="Rectangle_50" data-name="Rectangle 50" width="48.043" height="48.043" transform="translate(226.422 6.006)" fill="none"/>
    </clipPath>
    <clipPath id="clip-path-13">
      <rect id="Rectangle_49" data-name="Rectangle 49" width="48.24" height="48.24" transform="translate(226.297 5.93)" fill="none"/>
    </clipPath>
    <clipPath id="clip-path-14">
      <rect id="Rectangle_48" data-name="Rectangle 48" width="48.24" height="48.24" transform="translate(226.297 5.931)" fill="none"/>
    </clipPath>
  </defs>
  <g id="Group_41" data-name="Group 41" clip-path="url(#clip-path)">
    <g id="Group_12" data-name="Group 12">
      <g id="Group_11" data-name="Group 11" clip-path="url(#clip-path-2)">
        <text id="P" transform="translate(0 72.815)" fill="#212121" font-size="10.509" font-family="HelveticaNeue-Medium, Helvetica Neue" font-weight="500"><tspan x="0" y="0">P</tspan></text>
      </g>
    </g>
    <text id="e" transform="translate(7.009 72.815)" fill="#212121" font-size="10.509" font-family="HelveticaNeue-Medium, Helvetica Neue" font-weight="500"><tspan x="0" y="0">e</tspan></text>
    <text id="r" transform="translate(12.852 72.815)" fill="#212121" font-size="10.509" font-family="HelveticaNeue-Medium, Helvetica Neue" font-weight="500"><tspan x="0" y="0">r</tspan></text>
    <text id="f" transform="translate(16.551 72.815)" fill="#212121" font-size="10.509" font-family="HelveticaNeue-Medium, Helvetica Neue" font-weight="500"><tspan x="0" y="0">f</tspan></text>
    <text id="o" transform="translate(19.862 72.815)" fill="#212121" font-size="10.509" font-family="HelveticaNeue-Medium, Helvetica Neue" font-weight="500"><tspan x="0" y="0">o</tspan></text>
    <text id="r-2" data-name="r" transform="translate(26.094 72.815)" fill="#212121" font-size="10.509" font-family="HelveticaNeue-Medium, Helvetica Neue" font-weight="500"><tspan x="0" y="0">r</tspan></text>
    <text id="m" transform="translate(29.793 72.815)" fill="#212121" font-size="10.509" font-family="HelveticaNeue-Medium, Helvetica Neue" font-weight="500"><tspan x="0" y="0">m</tspan></text>
    <text id="a" transform="translate(38.937 72.815)" fill="#212121" font-size="10.509" font-family="HelveticaNeue-Medium, Helvetica Neue" font-weight="500"><tspan x="0" y="0">a</tspan></text>
    <text id="n" transform="translate(44.78 72.815)" fill="#212121" font-size="10.509" font-family="HelveticaNeue-Medium, Helvetica Neue" font-weight="500"><tspan x="0" y="0">n</tspan></text>
    <text id="c" transform="translate(50.812 72.815)" fill="#212121" font-size="10.509" font-family="HelveticaNeue-Medium, Helvetica Neue" font-weight="500"><tspan x="0" y="0">c</tspan></text>
    <text id="e-2" data-name="e" transform="translate(56.655 72.815)" fill="#212121" font-size="10.509" font-family="HelveticaNeue-Medium, Helvetica Neue" font-weight="500"><tspan x="0" y="0">e</tspan></text>
    <g id="Group_19" data-name="Group 19">
      <g id="Group_18" data-name="Group 18" clip-path="url(#clip-path-3)">
        <g id="Group_17" data-name="Group 17" opacity="0.098" style="isolation: isolate">
          <g id="Group_16" data-name="Group 16">
            <g id="Group_15" data-name="Group 15" clip-path="url(#clip-path-4)">
              <g id="Group_14" data-name="Group 14">
                <g id="Group_13" data-name="Group 13" clip-path="url(#clip-path-5)">
                  <path id="Path_79" data-name="Path 79" d="M53.667,30.027q0,1.1-.108,2.2T53.236,34.4q-.215,1.08-.534,2.134t-.742,2.072q-.421,1.017-.94,1.989t-1.131,1.887q-.612.915-1.311,1.767T47.1,45.88q-.778.78-1.63,1.478T43.7,48.669q-.917.612-1.887,1.131t-1.989.941q-1.019.421-2.072.741t-2.134.534q-1.08.216-2.177.323t-2.2.108q-1.1,0-2.2-.108t-2.176-.323q-1.08-.214-2.134-.534t-2.072-.741q-1.017-.423-1.989-.941t-1.887-1.131q-.917-.612-1.767-1.311T15.393,45.88q-.779-.779-1.477-1.63T12.6,42.483q-.612-.917-1.131-1.887t-.941-1.989q-.422-1.018-.741-2.072T9.258,34.4q-.216-1.08-.323-2.176t-.108-2.2q0-1.1.108-2.2t.323-2.176q.214-1.08.534-2.134t.741-2.072q.422-1.017.941-1.989T12.6,17.571q.612-.917,1.311-1.767t1.477-1.63q.78-.78,1.631-1.478t1.767-1.311q.915-.612,1.887-1.131t1.989-.941q1.017-.422,2.072-.741t2.134-.534q1.08-.216,2.176-.323t2.2-.108q1.1,0,2.2.108t2.177.323q1.08.214,2.134.534t2.072.741q1.017.423,1.989.941T43.7,11.385Q44.618,12,45.47,12.7t1.63,1.478q.78.779,1.478,1.63t1.311,1.767q.611.917,1.131,1.887t.94,1.989q.422,1.018.742,2.072t.534,2.134q.215,1.08.323,2.176t.108,2.2" fill="#0c6"/>
                  <path id="Path_80" data-name="Path 80" d="M53.667,30.027q0,1.1-.108,2.2T53.236,34.4q-.215,1.08-.534,2.134t-.742,2.072q-.421,1.017-.94,1.989t-1.131,1.887q-.612.915-1.311,1.767T47.1,45.88q-.778.78-1.63,1.478T43.7,48.669q-.917.612-1.887,1.131t-1.989.941q-1.019.421-2.072.741t-2.134.534q-1.08.216-2.177.323t-2.2.108q-1.1,0-2.2-.108t-2.176-.323q-1.08-.214-2.134-.534t-2.072-.741q-1.017-.423-1.989-.941t-1.887-1.131q-.917-.612-1.767-1.311T15.393,45.88q-.779-.779-1.477-1.63T12.6,42.483q-.612-.917-1.131-1.887t-.941-1.989q-.422-1.018-.741-2.072T9.258,34.4q-.216-1.08-.323-2.176t-.108-2.2q0-1.1.108-2.2t.323-2.176q.214-1.08.534-2.134t.741-2.072q.422-1.017.941-1.989T12.6,17.571q.612-.917,1.311-1.767t1.477-1.63q.78-.78,1.631-1.478t1.767-1.311q.915-.612,1.887-1.131t1.989-.941q1.017-.422,2.072-.741t2.134-.534q1.08-.216,2.176-.323t2.2-.108q1.1,0,2.2.108t2.177.323q1.08.214,2.134.534t2.072.741q1.017.423,1.989.941T43.7,11.385Q44.618,12,45.47,12.7t1.63,1.478q.78.779,1.478,1.63t1.311,1.767q.611.917,1.131,1.887t.94,1.989q.422,1.018.742,2.072t.534,2.134q.215,1.08.323,2.176T53.667,30.027Z" fill="none" stroke="#0c6" stroke-linecap="round" stroke-width="3.203"/>
                </g>
              </g>
            </g>
          </g>
        </g>
        <path id="Path_81" data-name="Path 81" d="M32.1,6.021a23.146,23.146,0,0,1,16.724,7.638,23.144,23.144,0,0,1,6.424,17.226,23.142,23.142,0,0,1-7.637,16.724,23.148,23.148,0,0,1-17.226,6.425A23.145,23.145,0,0,1,13.665,46.4,23.145,23.145,0,0,1,7.24,29.169a23.144,23.144,0,0,1,7.638-16.723A23.144,23.144,0,0,1,32.1,6.021a1.6,1.6,0,0,1,1.443,1.041A1.606,1.606,0,0,1,33.5,8.287a1.612,1.612,0,0,1-.366.507,1.605,1.605,0,0,1-1.148.428A20.062,20.062,0,0,0,17.06,14.79a20.06,20.06,0,0,0-6.619,14.494,20.06,20.06,0,0,0,5.568,14.929A20.061,20.061,0,0,0,30.5,50.833a20.06,20.06,0,0,0,14.929-5.568,20.063,20.063,0,0,0,6.62-14.494,20.062,20.062,0,0,0-5.568-14.93A20.062,20.062,0,0,0,31.99,9.222a1.594,1.594,0,0,1-.608-.144,1.572,1.572,0,0,1-.507-.365,1.6,1.6,0,0,1-.285-1.757A1.6,1.6,0,0,1,32.1,6.021" fill="#0c6"/>
      </g>
    </g>
    <text id="_1" data-name="1" transform="translate(15.611 36.033)" fill="#080" font-size="17.31" font-family="Menlo-Regular, Menlo"><tspan x="0" y="0">1</tspan></text>
    <text id="_0" data-name="0" transform="translate(26.032 36.033)" fill="#080" font-size="17.31" font-family="Menlo-Regular, Menlo"><tspan x="0" y="0">0</tspan></text>
    <text id="_0-2" data-name="0" transform="translate(36.453 36.033)" fill="#080" font-size="17.31" font-family="Menlo-Regular, Menlo"><tspan x="0" y="0">0</tspan></text>
    <text id="A-2" data-name="A" transform="translate(73.964 72.815)" fill="#212121" font-size="10.509" font-family="HelveticaNeue-Medium, Helvetica Neue" font-weight="500"><tspan x="0" y="0">A</tspan></text>
    <text id="c-2" data-name="c" transform="translate(80.974 72.815)" fill="#212121" font-size="10.509" font-family="HelveticaNeue-Medium, Helvetica Neue" font-weight="500"><tspan x="0" y="0">c</tspan></text>
    <text id="c-3" data-name="c" transform="translate(86.817 72.815)" fill="#212121" font-size="10.509" font-family="HelveticaNeue-Medium, Helvetica Neue" font-weight="500"><tspan x="0" y="0">c</tspan></text>
    <text id="e-3" data-name="e" transform="translate(92.661 72.815)" fill="#212121" font-size="10.509" font-family="HelveticaNeue-Medium, Helvetica Neue" font-weight="500"><tspan x="0" y="0">e</tspan></text>
    <text id="s" transform="translate(98.504 72.815)" fill="#212121" font-size="10.509" font-family="HelveticaNeue-Medium, Helvetica Neue" font-weight="500"><tspan x="0" y="0">s</tspan></text>
    <text id="s-2" data-name="s" transform="translate(103.958 72.815)" fill="#212121" font-size="10.509" font-family="HelveticaNeue-Medium, Helvetica Neue" font-weight="500"><tspan x="0" y="0">s</tspan></text>
    <text id="i" transform="translate(109.413 72.815)" fill="#212121" font-size="10.509" font-family="HelveticaNeue-Medium, Helvetica Neue" font-weight="500"><tspan x="0" y="0">i</tspan></text>
    <text id="b" transform="translate(111.945 72.815)" fill="#212121" font-size="10.509" font-family="HelveticaNeue-Medium, Helvetica Neue" font-weight="500"><tspan x="0" y="0">b</tspan></text>
    <text id="i-2" data-name="i" transform="translate(118.367 72.815)" fill="#212121" font-size="10.509" font-family="HelveticaNeue-Medium, Helvetica Neue" font-weight="500"><tspan x="0" y="0">i</tspan></text>
    <text id="l" transform="translate(120.899 72.815)" fill="#212121" font-size="10.509" font-family="HelveticaNeue-Medium, Helvetica Neue" font-weight="500"><tspan x="0" y="0">l</tspan></text>
    <text id="i-3" data-name="i" transform="translate(123.432 72.815)" fill="#212121" font-size="10.509" font-family="HelveticaNeue-Medium, Helvetica Neue" font-weight="500"><tspan x="0" y="0">i</tspan></text>
    <text id="t" transform="translate(125.965 72.815)" fill="#212121" font-size="10.509" font-family="HelveticaNeue-Medium, Helvetica Neue" font-weight="500"><tspan x="0" y="0">t</tspan></text>
    <text id="y" transform="translate(129.464 72.815)" fill="#212121" font-size="10.509" font-family="HelveticaNeue-Medium, Helvetica Neue" font-weight="500"><tspan x="0" y="0">y</tspan></text>
    <g id="Group_26" data-name="Group 26">
      <g id="Group_25" data-name="Group 25" clip-path="url(#clip-path-6)">
        <g id="Group_24" data-name="Group 24" opacity="0.098" style="isolation: isolate">
          <g id="Group_23" data-name="Group 23">
            <g id="Group_22" data-name="Group 22" clip-path="url(#clip-path-7)">
              <g id="Group_21" data-name="Group 21">
                <g id="Group_20" data-name="Group 20" clip-path="url(#clip-path-8)">
                  <path id="Path_82" data-name="Path 82" d="M127.233,30.027q0,1.1-.108,2.2T126.8,34.4q-.215,1.08-.534,2.134t-.742,2.072q-.421,1.017-.94,1.989t-1.131,1.887q-.612.915-1.311,1.767t-1.478,1.63q-.778.78-1.63,1.478t-1.767,1.311q-.917.612-1.887,1.131t-1.989.941q-1.019.421-2.072.741t-2.134.534q-1.08.216-2.177.323t-2.2.108q-1.1,0-2.2-.108t-2.176-.323q-1.08-.214-2.134-.534t-2.072-.741q-1.017-.423-1.989-.941t-1.887-1.131q-.917-.612-1.767-1.311T88.959,45.88q-.778-.779-1.477-1.63t-1.311-1.767q-.612-.917-1.131-1.887T84.1,38.607q-.421-1.018-.741-2.072T82.824,34.4q-.216-1.08-.323-2.176t-.108-2.2q0-1.1.108-2.2t.323-2.176q.215-1.08.534-2.134t.741-2.072q.421-1.017.941-1.989t1.131-1.887q.612-.917,1.311-1.767t1.477-1.63q.78-.78,1.631-1.478t1.767-1.311q.915-.612,1.887-1.131t1.989-.941q1.017-.422,2.072-.741t2.134-.534q1.08-.216,2.176-.323t2.2-.108q1.1,0,2.2.108t2.177.323q1.08.214,2.134.534t2.072.741q1.017.423,1.989.941t1.887,1.131q.915.612,1.767,1.311t1.63,1.478q.78.779,1.478,1.63t1.311,1.767q.61.917,1.131,1.887t.94,1.989q.421,1.018.742,2.072t.534,2.134q.214,1.08.323,2.176t.108,2.2" fill="#0c6"/>
                  <path id="Path_83" data-name="Path 83" d="M127.233,30.027q0,1.1-.108,2.2T126.8,34.4q-.215,1.08-.534,2.134t-.742,2.072q-.421,1.017-.94,1.989t-1.131,1.887q-.612.915-1.311,1.767t-1.478,1.63q-.778.78-1.63,1.478t-1.767,1.311q-.917.612-1.887,1.131t-1.989.941q-1.019.421-2.072.741t-2.134.534q-1.08.216-2.177.323t-2.2.108q-1.1,0-2.2-.108t-2.176-.323q-1.08-.214-2.134-.534t-2.072-.741q-1.017-.423-1.989-.941t-1.887-1.131q-.917-.612-1.767-1.311T88.959,45.88q-.778-.779-1.477-1.63t-1.311-1.767q-.612-.917-1.131-1.887T84.1,38.607q-.421-1.018-.741-2.072T82.824,34.4q-.216-1.08-.323-2.176t-.108-2.2q0-1.1.108-2.2t.323-2.176q.215-1.08.534-2.134t.741-2.072q.421-1.017.941-1.989t1.131-1.887q.612-.917,1.311-1.767t1.477-1.63q.78-.78,1.631-1.478t1.767-1.311q.915-.612,1.887-1.131t1.989-.941q1.017-.422,2.072-.741t2.134-.534q1.08-.216,2.176-.323t2.2-.108q1.1,0,2.2.108t2.177.323q1.08.214,2.134.534t2.072.741q1.017.423,1.989.941t1.887,1.131q.915.612,1.767,1.311t1.63,1.478q.78.779,1.478,1.63t1.311,1.767q.61.917,1.131,1.887t.94,1.989q.421,1.018.742,2.072t.534,2.134q.214,1.08.323,2.176T127.233,30.027Z" fill="none" stroke="#0c6" stroke-linecap="round" stroke-width="3.203"/>
                </g>
              </g>
            </g>
          </g>
        </g>
        <path id="Path_84" data-name="Path 84" d="M105.67,6.021a23.146,23.146,0,0,1,16.724,7.638,23.148,23.148,0,0,1,6.425,17.226,23.146,23.146,0,0,1-7.638,16.724A24.021,24.021,0,0,1,87.231,46.4a23.145,23.145,0,0,1-6.425-17.227,23.327,23.327,0,0,1,6.067-15.117A23.335,23.335,0,0,1,101.19,6.28a1.6,1.6,0,0,1,.483,3.167,20.219,20.219,0,0,0-12.408,6.735,20.215,20.215,0,0,0-5.258,13.1,20.06,20.06,0,0,0,5.568,14.929A20.818,20.818,0,0,0,119,45.265a20.063,20.063,0,0,0,6.62-14.494,20.062,20.062,0,0,0-5.568-14.93,20.062,20.062,0,0,0-14.494-6.619,1.594,1.594,0,0,1-.608-.144,1.572,1.572,0,0,1-.507-.365,1.6,1.6,0,0,1-.285-1.757,1.6,1.6,0,0,1,1.514-.935" fill="#0c6"/>
      </g>
    </g>
    <text id="_9" data-name="9" transform="translate(94.009 36.032)" fill="#080" font-size="17.31" font-family="Menlo-Regular, Menlo"><tspan x="0" y="0">9</tspan></text>
    <text id="_8" data-name="8" transform="translate(104.43 36.032)" fill="#080" font-size="17.31" font-family="Menlo-Regular, Menlo"><tspan x="0" y="0">8</tspan></text>
    <text id="B-2" data-name="B" transform="translate(166.145 72.815)" fill="#212121" font-size="10.509" font-family="HelveticaNeue-Medium, Helvetica Neue" font-weight="500"><tspan x="0" y="0">B</tspan></text>
    <text id="e-4" data-name="e" transform="translate(173.543 72.815)" fill="#212121" font-size="10.509" font-family="HelveticaNeue-Medium, Helvetica Neue" font-weight="500"><tspan x="0" y="0">e</tspan></text>
    <text id="s-3" data-name="s" transform="translate(179.387 72.815)" fill="#212121" font-size="10.509" font-family="HelveticaNeue-Medium, Helvetica Neue" font-weight="500"><tspan x="0" y="0">s</tspan></text>
    <text id="t-2" data-name="t" transform="translate(184.841 72.815)" fill="#212121" font-size="10.509" font-family="HelveticaNeue-Medium, Helvetica Neue" font-weight="500"><tspan x="0" y="0">t</tspan></text>
    <text id="P-2" data-name="P" transform="translate(154.458 87.834)" fill="#212121" font-size="10.509" font-family="HelveticaNeue-Medium, Helvetica Neue" font-weight="500"><tspan x="0" y="0">P</tspan></text>
    <text id="r-3" data-name="r" transform="translate(161.468 87.834)" fill="#212121" font-size="10.509" font-family="HelveticaNeue-Medium, Helvetica Neue" font-weight="500"><tspan x="0" y="0">r</tspan></text>
    <text id="a-3" data-name="a" transform="translate(165.167 87.834)" fill="#212121" font-size="10.509" font-family="HelveticaNeue-Medium, Helvetica Neue" font-weight="500"><tspan x="0" y="0">a</tspan></text>
    <text id="c-4" data-name="c" transform="translate(171.011 87.834)" fill="#212121" font-size="10.509" font-family="HelveticaNeue-Medium, Helvetica Neue" font-weight="500"><tspan x="0" y="0">c</tspan></text>
    <text id="t-3" data-name="t" transform="translate(176.854 87.834)" fill="#212121" font-size="10.509" font-family="HelveticaNeue-Medium, Helvetica Neue" font-weight="500"><tspan x="0" y="0">t</tspan></text>
    <text id="i-4" data-name="i" transform="translate(180.354 87.834)" fill="#212121" font-size="10.509" font-family="HelveticaNeue-Medium, Helvetica Neue" font-weight="500"><tspan x="0" y="0">i</tspan></text>
    <text id="c-5" data-name="c" transform="translate(182.886 87.834)" fill="#212121" font-size="10.509" font-family="HelveticaNeue-Medium, Helvetica Neue" font-weight="500"><tspan x="0" y="0">c</tspan></text>
    <text id="e-5" data-name="e" transform="translate(188.729 87.834)" fill="#212121" font-size="10.509" font-family="HelveticaNeue-Medium, Helvetica Neue" font-weight="500"><tspan x="0" y="0">e</tspan></text>
    <text id="s-4" data-name="s" transform="translate(194.572 87.834)" fill="#212121" font-size="10.509" font-family="HelveticaNeue-Medium, Helvetica Neue" font-weight="500"><tspan x="0" y="0">s</tspan></text>
    <g id="Group_33" data-name="Group 33">
      <g id="Group_32" data-name="Group 32" clip-path="url(#clip-path-9)">
        <g id="Group_31" data-name="Group 31" opacity="0.098" style="isolation: isolate">
          <g id="Group_30" data-name="Group 30">
            <g id="Group_29" data-name="Group 29" clip-path="url(#clip-path-10)">
              <g id="Group_28" data-name="Group 28">
                <g id="Group_27" data-name="Group 27" clip-path="url(#clip-path-11)">
                  <path id="Path_85" data-name="Path 85" d="M200.048,30.027q0,1.1-.108,2.2t-.323,2.176q-.215,1.08-.534,2.134t-.742,2.072q-.422,1.017-.94,1.989t-1.132,1.887q-.61.915-1.31,1.767t-1.478,1.63q-.778.78-1.63,1.478t-1.767,1.311q-.916.612-1.887,1.131t-1.989.941q-1.018.421-2.072.741T182,52.016q-1.08.216-2.177.323t-2.2.108q-1.1,0-2.2-.108t-2.176-.323q-1.08-.214-2.134-.534t-2.072-.741q-1.017-.423-1.989-.941t-1.887-1.131q-.916-.612-1.767-1.311t-1.631-1.478Q161,45.1,160.3,44.25t-1.311-1.767q-.612-.917-1.131-1.887t-.941-1.989q-.422-1.018-.741-2.072t-.534-2.134q-.216-1.08-.323-2.176t-.108-2.2q0-1.1.108-2.2t.323-2.176q.214-1.08.534-2.134t.741-2.072q.422-1.017.941-1.989t1.131-1.887q.612-.917,1.311-1.767t1.477-1.63q.78-.78,1.631-1.478t1.767-1.311q.915-.612,1.887-1.131t1.989-.941q1.017-.422,2.072-.741t2.134-.534q1.08-.216,2.176-.323t2.2-.108q1.1,0,2.2.108T182,8.038q1.08.214,2.134.534t2.072.741q1.017.423,1.989.941t1.887,1.131Q191,12,191.851,12.7t1.63,1.478q.78.779,1.478,1.63a21.925,21.925,0,0,1,1.31,1.767q.612.917,1.132,1.887t.94,1.989q.421,1.018.742,2.072t.534,2.134q.214,1.08.323,2.176t.108,2.2" fill="#0c6"/>
                  <path id="Path_86" data-name="Path 86" d="M200.048,30.027q0,1.1-.108,2.2t-.323,2.176q-.215,1.08-.534,2.134t-.742,2.072q-.422,1.017-.94,1.989t-1.132,1.887q-.61.915-1.31,1.767t-1.478,1.63q-.778.78-1.63,1.478t-1.767,1.311q-.916.612-1.887,1.131t-1.989.941q-1.018.421-2.072.741T182,52.016q-1.08.216-2.177.323t-2.2.108q-1.1,0-2.2-.108t-2.176-.323q-1.08-.214-2.134-.534t-2.072-.741q-1.017-.423-1.989-.941t-1.887-1.131q-.916-.612-1.767-1.311t-1.631-1.478Q161,45.1,160.3,44.25t-1.311-1.767q-.612-.917-1.131-1.887t-.941-1.989q-.422-1.018-.741-2.072t-.534-2.134q-.216-1.08-.323-2.176t-.108-2.2q0-1.1.108-2.2t.323-2.176q.214-1.08.534-2.134t.741-2.072q.422-1.017.941-1.989t1.131-1.887q.612-.917,1.311-1.767t1.477-1.63q.78-.78,1.631-1.478t1.767-1.311q.915-.612,1.887-1.131t1.989-.941q1.017-.422,2.072-.741t2.134-.534q1.08-.216,2.176-.323t2.2-.108q1.1,0,2.2.108T182,8.038q1.08.214,2.134.534t2.072.741q1.017.423,1.989.941t1.887,1.131Q191,12,191.851,12.7t1.63,1.478q.78.779,1.478,1.63a21.925,21.925,0,0,1,1.31,1.767q.612.917,1.132,1.887t.94,1.989q.421,1.018.742,2.072t.534,2.134q.214,1.08.323,2.176T200.048,30.027Z" fill="none" stroke="#0c6" stroke-linecap="round" stroke-width="3.203"/>
                </g>
              </g>
            </g>
          </g>
        </g>
        <path id="Path_87" data-name="Path 87" d="M178.486,6.021a23.148,23.148,0,0,1,16.724,7.638,23.152,23.152,0,0,1,6.425,17.226A23.146,23.146,0,0,1,194,47.609a24.021,24.021,0,0,1-33.95-1.213,23.145,23.145,0,0,1-6.425-17.227,23.144,23.144,0,0,1,7.638-16.723,23.144,23.144,0,0,1,17.226-6.425,1.584,1.584,0,0,1,.608.144,1.605,1.605,0,0,1,.507.365,1.6,1.6,0,0,1,.284,1.757,1.609,1.609,0,0,1-.365.507,1.605,1.605,0,0,1-1.148.428,20.066,20.066,0,0,0-14.931,5.568,20.055,20.055,0,0,0-6.618,14.494,20.06,20.06,0,0,0,5.568,14.929,20.818,20.818,0,0,0,29.423,1.052,20.067,20.067,0,0,0,6.62-14.494,20.062,20.062,0,0,0-5.568-14.93,20.062,20.062,0,0,0-14.494-6.619,1.589,1.589,0,0,1-.608-.144,1.561,1.561,0,0,1-.507-.365,1.6,1.6,0,0,1-.329-.532,1.593,1.593,0,0,1,.043-1.225,1.6,1.6,0,0,1,1.515-.935" fill="#0c6"/>
      </g>
    </g>
    <text id="_1-2" data-name="1" transform="translate(161.617 36.032)" fill="#080" font-size="17.31" font-family="Menlo-Regular, Menlo"><tspan x="0" y="0">1</tspan></text>
    <text id="_0-3" data-name="0" transform="translate(172.038 36.032)" fill="#080" font-size="17.31" font-family="Menlo-Regular, Menlo"><tspan x="0" y="0">0</tspan></text>
    <text id="_0-4" data-name="0" transform="translate(182.459 36.032)" fill="#080" font-size="17.31" font-family="Menlo-Regular, Menlo"><tspan x="0" y="0">0</tspan></text>
    <text id="S-5" data-name="S" transform="translate(239.348 72.815)" fill="#212121" font-size="10.509" font-family="HelveticaNeue-Medium, Helvetica Neue" font-weight="500"><tspan x="0" y="0">S</tspan></text>
    <text id="E-6" data-name="E" transform="translate(246.158 72.815)" fill="#212121" font-size="10.509" font-family="HelveticaNeue-Medium, Helvetica Neue" font-weight="500"><tspan x="0" y="0">E</tspan></text>
    <text id="O-2" data-name="O" transform="translate(252.778 72.815)" fill="#212121" font-size="10.509" font-family="HelveticaNeue-Medium, Helvetica Neue" font-weight="500"><tspan x="0" y="0">O</tspan></text>
    <g id="Group_40" data-name="Group 40">
      <g id="Group_39" data-name="Group 39" clip-path="url(#clip-path-12)">
        <g id="Group_38" data-name="Group 38" opacity="0.098" style="isolation: isolate">
          <g id="Group_37" data-name="Group 37">
            <g id="Group_36" data-name="Group 36" clip-path="url(#clip-path-13)">
              <g id="Group_35" data-name="Group 35">
                <g id="Group_34" data-name="Group 34" clip-path="url(#clip-path-14)">
                  <path id="Path_88" data-name="Path 88" d="M272.863,30.027q0,1.1-.108,2.2t-.323,2.176q-.215,1.08-.534,2.134t-.742,2.072q-.422,1.017-.94,1.989t-1.131,1.887q-.612.915-1.311,1.767T266.3,45.88q-.778.78-1.63,1.478T262.9,48.669q-.916.612-1.887,1.131t-1.989.941q-1.019.421-2.072.741t-2.134.534q-1.08.216-2.177.323t-2.2.108q-1.1,0-2.2-.108t-2.176-.323q-1.08-.214-2.134-.534t-2.072-.741q-1.017-.423-1.989-.941t-1.887-1.131q-.916-.612-1.767-1.311t-1.631-1.478q-.778-.779-1.477-1.63T231.8,42.483q-.612-.917-1.131-1.887t-.941-1.989q-.422-1.018-.741-2.072t-.534-2.134q-.216-1.08-.323-2.176t-.108-2.2q0-1.1.108-2.2t.323-2.176q.215-1.08.534-2.134t.741-2.072q.421-1.017.941-1.989t1.131-1.887q.612-.917,1.311-1.767t1.477-1.63q.78-.78,1.631-1.478t1.767-1.311q.915-.612,1.887-1.131t1.989-.941q1.017-.422,2.072-.741t2.134-.534q1.08-.216,2.176-.323t2.2-.108q1.1,0,2.2.108t2.177.323q1.08.214,2.134.534t2.072.741q1.017.423,1.989.941t1.887,1.131q.915.612,1.767,1.311t1.63,1.478q.78.779,1.478,1.63t1.311,1.767q.611.917,1.131,1.887t.94,1.989q.422,1.018.742,2.072t.534,2.134q.215,1.08.323,2.176t.108,2.2" fill="#0c6"/>
                  <path id="Path_89" data-name="Path 89" d="M272.863,30.027q0,1.1-.108,2.2t-.323,2.176q-.215,1.08-.534,2.134t-.742,2.072q-.422,1.017-.94,1.989t-1.131,1.887q-.612.915-1.311,1.767T266.3,45.88q-.778.78-1.63,1.478T262.9,48.669q-.916.612-1.887,1.131t-1.989.941q-1.019.421-2.072.741t-2.134.534q-1.08.216-2.177.323t-2.2.108q-1.1,0-2.2-.108t-2.176-.323q-1.08-.214-2.134-.534t-2.072-.741q-1.017-.423-1.989-.941t-1.887-1.131q-.916-.612-1.767-1.311t-1.631-1.478q-.778-.779-1.477-1.63T231.8,42.483q-.612-.917-1.131-1.887t-.941-1.989q-.422-1.018-.741-2.072t-.534-2.134q-.216-1.08-.323-2.176t-.108-2.2q0-1.1.108-2.2t.323-2.176q.215-1.08.534-2.134t.741-2.072q.421-1.017.941-1.989t1.131-1.887q.612-.917,1.311-1.767t1.477-1.63q.78-.78,1.631-1.478t1.767-1.311q.915-.612,1.887-1.131t1.989-.941q1.017-.422,2.072-.741t2.134-.534q1.08-.216,2.176-.323t2.2-.108q1.1,0,2.2.108t2.177.323q1.08.214,2.134.534t2.072.741q1.017.423,1.989.941t1.887,1.131q.915.612,1.767,1.311t1.63,1.478q.78.779,1.478,1.63t1.311,1.767q.611.917,1.131,1.887t.94,1.989q.422,1.018.742,2.072t.534,2.134q.215,1.08.323,2.176T272.863,30.027Z" fill="none" stroke="#0c6" stroke-linecap="round" stroke-width="3.203"/>
                </g>
              </g>
            </g>
          </g>
        </g>
        <path id="Path_90" data-name="Path 90" d="M251.3,6.021a23.146,23.146,0,0,1,16.724,7.638,23.144,23.144,0,0,1,6.424,17.226,23.142,23.142,0,0,1-7.637,16.724,24.021,24.021,0,0,1-33.95-1.213,23.145,23.145,0,0,1-6.425-17.227,23.144,23.144,0,0,1,7.638-16.723A23.144,23.144,0,0,1,251.3,6.021a1.6,1.6,0,0,1,1.4,2.266,1.612,1.612,0,0,1-.366.507,1.605,1.605,0,0,1-1.148.428,20.062,20.062,0,0,0-14.93,5.568,20.06,20.06,0,0,0-6.619,14.494,20.06,20.06,0,0,0,5.568,14.929,20.818,20.818,0,0,0,29.423,1.052,20.063,20.063,0,0,0,6.62-14.494,20.062,20.062,0,0,0-5.568-14.93,20.062,20.062,0,0,0-14.494-6.619,1.594,1.594,0,0,1-.608-.144,1.572,1.572,0,0,1-.507-.365,1.6,1.6,0,0,1-.285-1.757,1.6,1.6,0,0,1,1.514-.935" fill="#0c6"/>
      </g>
    </g>
    <text id="_1-3" data-name="1" transform="translate(234.433 36.032)" fill="#080" font-size="17.31" font-family="Menlo-Regular, Menlo"><tspan x="0" y="0">1</tspan></text>
    <text id="_0-5" data-name="0" transform="translate(244.854 36.032)" fill="#080" font-size="17.31" font-family="Menlo-Regular, Menlo"><tspan x="0" y="0">0</tspan></text>
    <text id="_0-6" data-name="0" transform="translate(255.274 36.032)" fill="#080" font-size="17.31" font-family="Menlo-Regular, Menlo"><tspan x="0" y="0">0</tspan></text>
  </g>
</svg>
