<svg xmlns="http://www.w3.org/2000/svg" width="361" height="351" viewBox="0 0 361 351">
  <g id="Group_6" data-name="Group 6" transform="translate(-15 -11)">
    <g id="Group_5" data-name="Group 5">
      <rect id="Rectangle_9" data-name="Rectangle 9" width="361" height="351" rx="16" transform="translate(15 11)" fill="#fff"/>
      <path id="Path_16" data-name="Path 16" d="M40.04,37.643a.829.829,0,0,1,.48.656.963.963,0,0,1-.224.816.733.733,0,0,1-.544.32,1.226,1.226,0,0,1-.656-.128,4.075,4.075,0,0,0-.816-.272,3.9,3.9,0,0,0-.88-.1,4.193,4.193,0,0,0-1.552.272,3.206,3.206,0,0,0-1.152.784,3.369,3.369,0,0,0-.736,1.184,4.589,4.589,0,0,0-.24,1.52,4.794,4.794,0,0,0,.272,1.7,3.4,3.4,0,0,0,.784,1.2,3.21,3.21,0,0,0,1.168.72,4.578,4.578,0,0,0,1.456.224,4.739,4.739,0,0,0,.864-.08,2.964,2.964,0,0,0,.832-.288,1.118,1.118,0,0,1,.656-.112.842.842,0,0,1,.56.336.955.955,0,0,1,.224.832.818.818,0,0,1-.48.608,6.1,6.1,0,0,1-.864.352,6.168,6.168,0,0,1-.88.192,5.182,5.182,0,0,1-.912.08,6.523,6.523,0,0,1-2.192-.368A5.638,5.638,0,0,1,33.368,47,5.093,5.093,0,0,1,32.1,45.211,6.358,6.358,0,0,1,31.64,42.7a6.063,6.063,0,0,1,.416-2.272,5.347,5.347,0,0,1,1.2-1.792,5.456,5.456,0,0,1,1.84-1.184,6.027,6.027,0,0,1,2.3-.432,5.919,5.919,0,0,1,1.376.16A5.591,5.591,0,0,1,40.04,37.643Zm9.519,1.936a.932.932,0,0,1,.688.272.952.952,0,0,1,.272.7v6.768a.987.987,0,0,1-.272.7,1.006,1.006,0,0,1-1.376,0,.987.987,0,0,1-.272-.7v-.784l.352.144a.935.935,0,0,1-.224.512,3.189,3.189,0,0,1-.608.576,3.886,3.886,0,0,1-.912.5,3.165,3.165,0,0,1-1.12.192,3.7,3.7,0,0,1-2-.56,4.132,4.132,0,0,1-1.424-1.568,5.018,5.018,0,0,1-.512-2.3,4.956,4.956,0,0,1,.512-2.3,4.025,4.025,0,0,1,1.408-1.568,3.489,3.489,0,0,1,1.952-.576,3.7,3.7,0,0,1,1.264.208,3.646,3.646,0,0,1,.992.528,2.721,2.721,0,0,1,.656.656.978.978,0,0,1,.24.544l-.576.208V40.555a.933.933,0,0,1,.272-.688A.906.906,0,0,1,49.559,39.579ZM46.327,46.7a2.168,2.168,0,0,0,1.232-.352,2.32,2.32,0,0,0,.816-.96,3,3,0,0,0,.3-1.36,3.034,3.034,0,0,0-.3-1.376,2.32,2.32,0,0,0-.816-.96,2.168,2.168,0,0,0-1.232-.352,2.141,2.141,0,0,0-1.216.352,2.437,2.437,0,0,0-.832.96,3.176,3.176,0,0,0-.288,1.376,3.138,3.138,0,0,0,.288,1.36,2.437,2.437,0,0,0,.832.96A2.141,2.141,0,0,0,46.327,46.7Zm6.847-6.8h3.792a.875.875,0,0,1,.9.9.849.849,0,0,1-.256.624.9.9,0,0,1-.64.24H53.174a.875.875,0,0,1-.9-.9.8.8,0,0,1,.256-.608A.868.868,0,0,1,53.174,39.9Zm1.712-2a.856.856,0,0,1,.672.288.932.932,0,0,1,.272.688v7.12a.753.753,0,0,0,.08.368.56.56,0,0,0,.24.208.9.9,0,0,0,.336.064.939.939,0,0,0,.352-.064.813.813,0,0,1,.368-.08.516.516,0,0,1,.4.208.817.817,0,0,1,.192.576.845.845,0,0,1-.5.736,1.985,1.985,0,0,1-1.04.288,6.619,6.619,0,0,1-.752-.048,2.286,2.286,0,0,1-.768-.272,1.752,1.752,0,0,1-.592-.672,2.632,2.632,0,0,1-.24-1.232v-7.2a.933.933,0,0,1,.272-.688A.958.958,0,0,1,54.886,37.9Zm9.173,10.56a4.8,4.8,0,0,1-2.368-.56,4.048,4.048,0,0,1-1.536-1.552,4.565,4.565,0,0,1-.528-2.208,4.861,4.861,0,0,1,.576-2.448,4.172,4.172,0,0,1,1.536-1.568,3.944,3.944,0,0,1,2-.544,3.588,3.588,0,0,1,1.536.336,4.13,4.13,0,0,1,1.3.928,4.257,4.257,0,0,1,.88,1.344,4.027,4.027,0,0,1,.336,1.632.822.822,0,0,1-.3.624,1.018,1.018,0,0,1-.672.24H60.7l-.48-1.6h5.872l-.352.32v-.432a1.434,1.434,0,0,0-.336-.832,2.228,2.228,0,0,0-1.664-.8,3.033,3.033,0,0,0-.9.128,1.715,1.715,0,0,0-.72.432,2.1,2.1,0,0,0-.48.816,4.042,4.042,0,0,0-.176,1.3,2.891,2.891,0,0,0,.352,1.472,2.615,2.615,0,0,0,.928.912,2.569,2.569,0,0,0,1.216.3,3.719,3.719,0,0,0,.944-.1,2.177,2.177,0,0,0,.56-.224q.224-.144.4-.24a1.221,1.221,0,0,1,.544-.144.753.753,0,0,1,.576.24.768.768,0,0,1,.24.56,1,1,0,0,1-.448.784,3.823,3.823,0,0,1-1.168.624A4.783,4.783,0,0,1,64.059,48.459Zm9.359-8.88a3.513,3.513,0,0,1,1.232.208,3.441,3.441,0,0,1,.96.528,2.829,2.829,0,0,1,.64.656.978.978,0,0,1,.24.544l-.416.208V40.555a.933.933,0,0,1,.272-.688.906.906,0,0,1,.688-.288.932.932,0,0,1,.688.272.952.952,0,0,1,.272.7v7.12a3.688,3.688,0,0,1-.608,2.224,3.279,3.279,0,0,1-1.568,1.216,5.381,5.381,0,0,1-2.928.3q-.512-.08-.976-.192a5.487,5.487,0,0,1-.7-.208,1.4,1.4,0,0,1-.672-.528.782.782,0,0,1-.064-.656,1.036,1.036,0,0,1,.464-.64.819.819,0,0,1,.672-.032q.16.048.528.192a7.069,7.069,0,0,0,.8.256,2.909,2.909,0,0,0,.784.128,2.738,2.738,0,0,0,1.776-.48,1.635,1.635,0,0,0,.576-1.328V46.539l.192.144a.934.934,0,0,1-.224.512,2.777,2.777,0,0,1-.592.576,3.644,3.644,0,0,1-.88.5,3.073,3.073,0,0,1-1.088.192,3.836,3.836,0,0,1-2.048-.56,4.087,4.087,0,0,1-1.44-1.568,4.892,4.892,0,0,1-.528-2.3,4.831,4.831,0,0,1,.528-2.3,3.981,3.981,0,0,1,1.424-1.568A3.621,3.621,0,0,1,73.418,39.579Zm.3,1.76a2.275,2.275,0,0,0-1.264.352,2.393,2.393,0,0,0-.848.96,3.036,3.036,0,0,0-.3,1.376,3,3,0,0,0,.3,1.36,2.393,2.393,0,0,0,.848.96,2.275,2.275,0,0,0,1.264.352A2.3,2.3,0,0,0,75,46.347a2.391,2.391,0,0,0,.848-.96,3,3,0,0,0,.3-1.36,3.034,3.034,0,0,0-.3-1.376,2.391,2.391,0,0,0-.848-.96A2.3,2.3,0,0,0,73.722,41.339Zm14.819,2.688a4.5,4.5,0,0,1-.592,2.32A4.133,4.133,0,0,1,86.381,47.9a4.325,4.325,0,0,1-2.192.56,4.413,4.413,0,0,1-2.208-.56,4.288,4.288,0,0,1-1.568-1.552,4.593,4.593,0,0,1-.576-2.32,4.505,4.505,0,0,1,.576-2.3,4.251,4.251,0,0,1,1.568-1.568,4.317,4.317,0,0,1,2.208-.576,4.231,4.231,0,0,1,2.192.576,4.1,4.1,0,0,1,1.568,1.568A4.41,4.41,0,0,1,88.541,44.027Zm-1.92,0a2.807,2.807,0,0,0-.336-1.408,2.352,2.352,0,0,0-.88-.944,2.268,2.268,0,0,0-1.216-.336,2.35,2.35,0,0,0-1.232.336,2.508,2.508,0,0,0-.88.944,2.919,2.919,0,0,0-.32,1.408,2.979,2.979,0,0,0,.32,1.408,2.54,2.54,0,0,0,.88.928,2.35,2.35,0,0,0,1.232.336,2.268,2.268,0,0,0,1.216-.336,2.379,2.379,0,0,0,.88-.928A2.863,2.863,0,0,0,86.621,44.027Zm5.04,4.272a.932.932,0,0,1-.688-.272.987.987,0,0,1-.272-.7V40.715a.932.932,0,0,1,.272-.688.966.966,0,0,1,1.376,0,.933.933,0,0,1,.272.688v1.5l-.112-1.072a2.464,2.464,0,0,1,.448-.672,2.581,2.581,0,0,1,.64-.5,2.713,2.713,0,0,1,.752-.3,3.417,3.417,0,0,1,.8-.1,1.193,1.193,0,0,1,.8.272.8.8,0,0,1,.336.64.975.975,0,0,1-.272.768.913.913,0,0,1-.592.224,1.381,1.381,0,0,1-.56-.112,1.311,1.311,0,0,0-.56-.112,1.378,1.378,0,0,0-.592.144,1.613,1.613,0,0,0-.544.416,2.435,2.435,0,0,0-.4.72,3.042,3.042,0,0,0-.144.992v3.792a.987.987,0,0,1-.272.7A.933.933,0,0,1,91.661,48.3Zm8.266-.976a.987.987,0,0,1-.272.7,1.006,1.006,0,0,1-1.376,0,.987.987,0,0,1-.272-.7V40.715a.932.932,0,0,1,.272-.688.966.966,0,0,1,1.376,0,.933.933,0,0,1,.272.688ZM98.951,38.7a1.271,1.271,0,0,1-.768-.176.751.751,0,0,1-.224-.624v-.3a.7.7,0,0,1,.24-.624,1.362,1.362,0,0,1,.768-.176,1.306,1.306,0,0,1,.784.176.752.752,0,0,1,.224.624v.3a.746.746,0,0,1-.24.64A1.459,1.459,0,0,1,98.951,38.7Zm7.461,9.76a4.8,4.8,0,0,1-2.368-.56,4.054,4.054,0,0,1-1.536-1.552,4.565,4.565,0,0,1-.528-2.208,4.861,4.861,0,0,1,.576-2.448,4.178,4.178,0,0,1,1.536-1.568,3.943,3.943,0,0,1,2-.544,3.588,3.588,0,0,1,1.536.336,4.121,4.121,0,0,1,1.3.928,4.255,4.255,0,0,1,.88,1.344,4.027,4.027,0,0,1,.336,1.632.823.823,0,0,1-.3.624,1.018,1.018,0,0,1-.672.24h-6.112l-.48-1.6h5.872l-.352.32v-.432a1.429,1.429,0,0,0-.336-.832,2.228,2.228,0,0,0-1.664-.8,3.032,3.032,0,0,0-.9.128,1.72,1.72,0,0,0-.72.432,2.089,2.089,0,0,0-.48.816,4.053,4.053,0,0,0-.176,1.3,2.888,2.888,0,0,0,.352,1.472,2.616,2.616,0,0,0,.928.912,2.568,2.568,0,0,0,1.216.3,3.719,3.719,0,0,0,.944-.1,2.176,2.176,0,0,0,.56-.224c.149-.1.283-.176.4-.24a1.22,1.22,0,0,1,.544-.144.752.752,0,0,1,.576.24.768.768,0,0,1,.24.56,1,1,0,0,1-.448.784,3.822,3.822,0,0,1-1.168.624A4.782,4.782,0,0,1,106.412,48.459Zm5.389-1.488a.9.9,0,0,1-.144-.576.774.774,0,0,1,.416-.608.829.829,0,0,1,.544-.128.868.868,0,0,1,.56.288,3.793,3.793,0,0,0,.976.72,2.851,2.851,0,0,0,1.28.256q.24-.016.528-.064a1.051,1.051,0,0,0,.5-.256.809.809,0,0,0,.224-.624.7.7,0,0,0-.24-.56,2,2,0,0,0-.64-.352q-.384-.144-.864-.272-.495-.144-1.024-.32a4.533,4.533,0,0,1-.944-.448,2.154,2.154,0,0,1-.976-1.92,2.112,2.112,0,0,1,.448-1.36,2.942,2.942,0,0,1,1.152-.864,3.83,3.83,0,0,1,1.5-.3,4.537,4.537,0,0,1,1.04.128,3.7,3.7,0,0,1,1.04.384,2.483,2.483,0,0,1,.833.688,1.145,1.145,0,0,1,.208.576.689.689,0,0,1-.305.608.8.8,0,0,1-.56.176.88.88,0,0,1-.527-.224,1.882,1.882,0,0,0-.737-.56,2.518,2.518,0,0,0-1.568-.144.937.937,0,0,0-.48.24.718.718,0,0,0-.208.576.772.772,0,0,0,.24.592,2.015,2.015,0,0,0,.64.352c.278.085.571.171.881.256s.645.187.975.3a3.875,3.875,0,0,1,.913.464,2.186,2.186,0,0,1,.672.752,2.31,2.31,0,0,1,.256,1.152,2.1,2.1,0,0,1-.48,1.392,3.113,3.113,0,0,1-1.2.88,3.928,3.928,0,0,1-1.472.288,5.855,5.855,0,0,1-1.888-.32A3.32,3.32,0,0,1,111.8,46.971Z" fill="#0f172a"/>
      <path id="Path_17" data-name="Path 17" d="M256.806,48a1.028,1.028,0,0,1-.736-.272.958.958,0,0,1-.288-.7v-9.28h2.08v9.28a.935.935,0,0,1-.3.7A1.051,1.051,0,0,1,256.806,48Zm-3.536-9.36a1.021,1.021,0,0,1-.7-.256.878.878,0,0,1-.272-.672.828.828,0,0,1,.272-.656,1.021,1.021,0,0,1,.7-.256h7.1a.966.966,0,0,1,.688.256.928.928,0,0,1,0,1.344,1,1,0,0,1-.688.24Zm16.462,5.088a4.5,4.5,0,0,1-.592,2.32,4.136,4.136,0,0,1-1.568,1.552,4.328,4.328,0,0,1-2.192.56,4.411,4.411,0,0,1-2.208-.56,4.281,4.281,0,0,1-1.568-1.552,4.593,4.593,0,0,1-.576-2.32,4.505,4.505,0,0,1,.576-2.3,4.244,4.244,0,0,1,1.568-1.568,4.315,4.315,0,0,1,2.208-.576,4.234,4.234,0,0,1,2.192.576,4.1,4.1,0,0,1,1.568,1.568A4.416,4.416,0,0,1,269.732,43.728Zm-1.92,0a2.807,2.807,0,0,0-.336-1.408,2.359,2.359,0,0,0-.88-.944,2.268,2.268,0,0,0-1.216-.336,2.349,2.349,0,0,0-1.232.336,2.505,2.505,0,0,0-.88.944,2.912,2.912,0,0,0-.32,1.408,2.971,2.971,0,0,0,.32,1.408,2.537,2.537,0,0,0,.88.928,2.349,2.349,0,0,0,1.232.336,2.268,2.268,0,0,0,1.216-.336,2.385,2.385,0,0,0,.88-.928A2.864,2.864,0,0,0,267.812,43.728Zm8.512-4.448a3.57,3.57,0,0,1,2,.576,3.892,3.892,0,0,1,1.408,1.552,4.831,4.831,0,0,1,.528,2.3,4.927,4.927,0,0,1-.528,2.32A4.05,4.05,0,0,1,278.34,47.6a3.512,3.512,0,0,1-1.952.56,3.416,3.416,0,0,1-1.2-.208,4,4,0,0,1-.992-.528,3.426,3.426,0,0,1-.656-.64,1.092,1.092,0,0,1-.224-.56l.5-.208v4.208a.934.934,0,0,1-.272.688.906.906,0,0,1-.688.288.933.933,0,0,1-.688-.272.954.954,0,0,1-.272-.7V40.416a.934.934,0,0,1,.272-.688.966.966,0,0,1,1.376,0,.934.934,0,0,1,.272.688V41.2l-.272-.144a.869.869,0,0,1,.224-.5,2.92,2.92,0,0,1,.608-.592,3.355,3.355,0,0,1,.88-.5A3.028,3.028,0,0,1,276.324,39.28Zm-.24,1.76a2.169,2.169,0,0,0-1.232.352,2.439,2.439,0,0,0-.832.96,3.072,3.072,0,0,0-.288,1.36,3.244,3.244,0,0,0,.288,1.376,2.439,2.439,0,0,0,.832.96,2.169,2.169,0,0,0,1.232.352,2.093,2.093,0,0,0,1.216-.352,2.32,2.32,0,0,0,.816-.96,3.1,3.1,0,0,0,.3-1.376,2.932,2.932,0,0,0-.3-1.36,2.32,2.32,0,0,0-.816-.96A2.093,2.093,0,0,0,276.084,41.04Zm10.8,5.632a.891.891,0,0,1-.144-.576.772.772,0,0,1,.416-.608.829.829,0,0,1,.544-.128.868.868,0,0,1,.56.288,3.776,3.776,0,0,0,.976.72,2.848,2.848,0,0,0,1.28.256q.24-.016.528-.064a1.056,1.056,0,0,0,.5-.256.812.812,0,0,0,.224-.624.7.7,0,0,0-.24-.56,2,2,0,0,0-.64-.352q-.384-.144-.864-.272-.5-.144-1.024-.32a4.532,4.532,0,0,1-.944-.448,2.154,2.154,0,0,1-.976-1.92,2.107,2.107,0,0,1,.448-1.36,2.942,2.942,0,0,1,1.152-.864,3.827,3.827,0,0,1,1.5-.3,4.543,4.543,0,0,1,1.04.128,3.709,3.709,0,0,1,1.04.384,2.48,2.48,0,0,1,.832.688,1.136,1.136,0,0,1,.208.576.688.688,0,0,1-.3.608.8.8,0,0,1-.56.176.885.885,0,0,1-.528-.224,1.879,1.879,0,0,0-.736-.56,2.518,2.518,0,0,0-1.568-.144.937.937,0,0,0-.48.24.715.715,0,0,0-.208.576.772.772,0,0,0,.24.592,2,2,0,0,0,.64.352c.277.085.571.171.88.256s.645.187.976.3a3.849,3.849,0,0,1,.912.464,2.186,2.186,0,0,1,.672.752,2.3,2.3,0,0,1,.256,1.152,2.1,2.1,0,0,1-.48,1.392,3.11,3.11,0,0,1-1.2.88,3.932,3.932,0,0,1-1.472.288,5.851,5.851,0,0,1-1.888-.32A3.32,3.32,0,0,1,286.887,46.672Zm13.127-7.392a3.57,3.57,0,0,1,2,.576,3.892,3.892,0,0,1,1.408,1.552,4.832,4.832,0,0,1,.528,2.3,4.927,4.927,0,0,1-.528,2.32A4.05,4.05,0,0,1,302.03,47.6a3.512,3.512,0,0,1-1.952.56,3.416,3.416,0,0,1-1.2-.208,4,4,0,0,1-.992-.528,3.427,3.427,0,0,1-.656-.64,1.092,1.092,0,0,1-.224-.56l.5-.208v4.208a.934.934,0,0,1-.272.688.906.906,0,0,1-.688.288.933.933,0,0,1-.688-.272.954.954,0,0,1-.272-.7V40.416a.934.934,0,0,1,.272-.688.966.966,0,0,1,1.376,0,.934.934,0,0,1,.272.688V41.2l-.272-.144a.869.869,0,0,1,.224-.5,2.92,2.92,0,0,1,.608-.592,3.355,3.355,0,0,1,.88-.5A3.028,3.028,0,0,1,300.014,39.28Zm-.24,1.76a2.169,2.169,0,0,0-1.232.352,2.439,2.439,0,0,0-.832.96,3.072,3.072,0,0,0-.288,1.36,3.244,3.244,0,0,0,.288,1.376,2.439,2.439,0,0,0,.832.96,2.169,2.169,0,0,0,1.232.352,2.093,2.093,0,0,0,1.216-.352,2.32,2.32,0,0,0,.816-.96,3.1,3.1,0,0,0,.3-1.376,2.932,2.932,0,0,0-.3-1.36,2.32,2.32,0,0,0-.816-.96A2.093,2.093,0,0,0,299.774,41.04Zm10.367,7.12a4.8,4.8,0,0,1-2.368-.56,4.04,4.04,0,0,1-1.536-1.552,4.566,4.566,0,0,1-.528-2.208,4.861,4.861,0,0,1,.576-2.448,4.163,4.163,0,0,1,1.536-1.568,3.943,3.943,0,0,1,2-.544,3.588,3.588,0,0,1,1.536.336,4.144,4.144,0,0,1,1.3.928,4.273,4.273,0,0,1,.88,1.344,4.027,4.027,0,0,1,.336,1.632.823.823,0,0,1-.3.624,1.018,1.018,0,0,1-.672.24h-6.112l-.48-1.6h5.872l-.352.32v-.432a1.442,1.442,0,0,0-.336-.832,2.228,2.228,0,0,0-1.664-.8,3.032,3.032,0,0,0-.9.128,1.708,1.708,0,0,0-.72.432,2.089,2.089,0,0,0-.48.816,4.025,4.025,0,0,0-.176,1.3,2.888,2.888,0,0,0,.352,1.472,2.607,2.607,0,0,0,.928.912,2.568,2.568,0,0,0,1.216.3,3.724,3.724,0,0,0,.944-.1,2.191,2.191,0,0,0,.56-.224q.223-.144.4-.24a1.219,1.219,0,0,1,.544-.144.755.755,0,0,1,.576.24.768.768,0,0,1,.24.56,1,1,0,0,1-.448.784,3.834,3.834,0,0,1-1.168.624A4.787,4.787,0,0,1,310.141,48.16ZM320.6,39.28a2.78,2.78,0,0,1,1.792.5,2.459,2.459,0,0,1,.848,1.328,6.455,6.455,0,0,1,.24,1.824v4.1a.984.984,0,0,1-.272.7,1.006,1.006,0,0,1-1.376,0,.989.989,0,0,1-.272-.7v-4.1a2.877,2.877,0,0,0-.144-.944,1.269,1.269,0,0,0-.48-.688,1.692,1.692,0,0,0-1.008-.256,2.163,2.163,0,0,0-1.088.256,1.809,1.809,0,0,0-.672.688,1.963,1.963,0,0,0-.224.944v4.1a.984.984,0,0,1-.272.7,1.006,1.006,0,0,1-1.376,0,.989.989,0,0,1-.272-.7V40.416a.934.934,0,0,1,.272-.688.966.966,0,0,1,1.376,0,.93.93,0,0,1,.272.688V41.1l-.24-.048a2.981,2.981,0,0,1,.416-.576,3.833,3.833,0,0,1,.64-.592,3.093,3.093,0,0,1,.832-.432A2.825,2.825,0,0,1,320.6,39.28Zm12.443-3.12a.931.931,0,0,1,.688.272.95.95,0,0,1,.272.7v9.888a.984.984,0,0,1-.272.7,1.006,1.006,0,0,1-1.376,0,.989.989,0,0,1-.272-.7V46.24l.352.144a.93.93,0,0,1-.224.512,3.177,3.177,0,0,1-.608.576,3.886,3.886,0,0,1-.912.5,3.162,3.162,0,0,1-1.12.192,3.7,3.7,0,0,1-2-.56,4.134,4.134,0,0,1-1.424-1.568,5.022,5.022,0,0,1-.512-2.3,4.96,4.96,0,0,1,.512-2.3,4.03,4.03,0,0,1,1.408-1.568,3.491,3.491,0,0,1,1.952-.576,3.7,3.7,0,0,1,1.264.208,3.641,3.641,0,0,1,.992.528,2.716,2.716,0,0,1,.656.656.978.978,0,0,1,.24.544l-.576.208V37.136a.934.934,0,0,1,.272-.688A.907.907,0,0,1,333.045,36.16ZM329.813,46.4a2.167,2.167,0,0,0,1.232-.352,2.32,2.32,0,0,0,.816-.96,2.994,2.994,0,0,0,.3-1.36,3.03,3.03,0,0,0-.3-1.376,2.32,2.32,0,0,0-.816-.96,2.167,2.167,0,0,0-1.232-.352,2.142,2.142,0,0,0-1.216.352,2.439,2.439,0,0,0-.832.96,3.176,3.176,0,0,0-.288,1.376,3.137,3.137,0,0,0,.288,1.36,2.439,2.439,0,0,0,.832.96A2.142,2.142,0,0,0,329.813,46.4Zm8.559.624a.984.984,0,0,1-.272.7,1.006,1.006,0,0,1-1.376,0,.989.989,0,0,1-.272-.7V40.416a.934.934,0,0,1,.272-.688.966.966,0,0,1,1.376,0,.93.93,0,0,1,.272.688ZM337.4,38.4a1.274,1.274,0,0,1-.768-.176.753.753,0,0,1-.224-.624v-.3a.7.7,0,0,1,.24-.624,1.364,1.364,0,0,1,.768-.176,1.3,1.3,0,0,1,.784.176.75.75,0,0,1,.224.624v.3a.746.746,0,0,1-.24.64A1.458,1.458,0,0,1,337.4,38.4Zm8.006.88a2.784,2.784,0,0,1,1.792.5,2.464,2.464,0,0,1,.848,1.328,6.455,6.455,0,0,1,.24,1.824v4.1a.989.989,0,0,1-.272.7,1.006,1.006,0,0,1-1.376,0,.984.984,0,0,1-.272-.7v-4.1a2.877,2.877,0,0,0-.144-.944,1.28,1.28,0,0,0-.48-.688,1.7,1.7,0,0,0-1.008-.256,2.158,2.158,0,0,0-1.088.256,1.809,1.809,0,0,0-.672.688,1.952,1.952,0,0,0-.224.944v4.1a.989.989,0,0,1-.272.7,1.006,1.006,0,0,1-1.376,0,.984.984,0,0,1-.272-.7V40.416a.93.93,0,0,1,.272-.688.966.966,0,0,1,1.376,0,.934.934,0,0,1,.272.688V41.1l-.24-.048a2.937,2.937,0,0,1,.416-.576,3.757,3.757,0,0,1,.64-.592,3.063,3.063,0,0,1,.832-.432A2.817,2.817,0,0,1,345.4,39.28Zm8.987,0a3.511,3.511,0,0,1,1.232.208,3.453,3.453,0,0,1,.96.528,2.832,2.832,0,0,1,.64.656.978.978,0,0,1,.24.544l-.416.208V40.256a.934.934,0,0,1,.272-.688.906.906,0,0,1,.688-.288.933.933,0,0,1,.688.272.954.954,0,0,1,.272.7v7.12a3.691,3.691,0,0,1-.608,2.224,3.28,3.28,0,0,1-1.568,1.216,5.381,5.381,0,0,1-2.928.3c-.341-.053-.667-.117-.976-.192a5.5,5.5,0,0,1-.7-.208,1.4,1.4,0,0,1-.672-.528.782.782,0,0,1-.064-.656,1.037,1.037,0,0,1,.464-.64.818.818,0,0,1,.672-.032q.16.048.528.192a7.042,7.042,0,0,0,.8.256,2.911,2.911,0,0,0,.784.128,2.738,2.738,0,0,0,1.776-.48,1.635,1.635,0,0,0,.576-1.328V46.24l.192.144a.937.937,0,0,1-.224.512,2.787,2.787,0,0,1-.592.576,3.646,3.646,0,0,1-.88.5,3.071,3.071,0,0,1-1.088.192,3.836,3.836,0,0,1-2.048-.56,4.087,4.087,0,0,1-1.44-1.568,4.892,4.892,0,0,1-.528-2.3,4.832,4.832,0,0,1,.528-2.3,3.983,3.983,0,0,1,1.424-1.568A3.62,3.62,0,0,1,354.389,39.28Zm.3,1.76a2.275,2.275,0,0,0-1.264.352,2.392,2.392,0,0,0-.848.96,3.03,3.03,0,0,0-.3,1.376,2.994,2.994,0,0,0,.3,1.36,2.392,2.392,0,0,0,.848.96,2.275,2.275,0,0,0,1.264.352,2.3,2.3,0,0,0,1.28-.352,2.392,2.392,0,0,0,.848-.96,3,3,0,0,0,.3-1.36,3.031,3.031,0,0,0-.3-1.376,2.392,2.392,0,0,0-.848-.96A2.3,2.3,0,0,0,354.693,41.04Z" fill="#9ca3af"/>
    </g>
    <rect id="Rectangle_10" data-name="Rectangle 10" width="345" height="1" rx="0.5" transform="translate(31 129)" fill="#e5e7eb"/>
    <path id="Path_18" data-name="Path 18" d="M87.8,97.16a6.933,6.933,0,0,1-2.016-.272,4.938,4.938,0,0,1-1.712-.992,1.263,1.263,0,0,1-.32-.4.994.994,0,0,1-.112-.448.9.9,0,0,1,.256-.64.887.887,0,0,1,.672-.288.848.848,0,0,1,.544.192,5.156,5.156,0,0,0,1.2.752,3.835,3.835,0,0,0,1.488.256,3.234,3.234,0,0,0,1.088-.176,2.273,2.273,0,0,0,.8-.5,1.019,1.019,0,0,0,.3-.72,1.211,1.211,0,0,0-.288-.816,2.125,2.125,0,0,0-.88-.56,6.453,6.453,0,0,0-1.5-.368A7.017,7.017,0,0,1,85.8,91.8a3.86,3.86,0,0,1-1.1-.672,2.8,2.8,0,0,1-.656-.96,3.334,3.334,0,0,1-.224-1.248,2.966,2.966,0,0,1,.528-1.776,3.413,3.413,0,0,1,1.456-1.12,5.145,5.145,0,0,1,2.016-.384,5.58,5.58,0,0,1,1.92.32,4.373,4.373,0,0,1,1.456.784,1.068,1.068,0,0,1,.464.848.912.912,0,0,1-.272.64.853.853,0,0,1-.64.288.7.7,0,0,1-.432-.144,2.726,2.726,0,0,0-.688-.416,5.158,5.158,0,0,0-.912-.336,3.129,3.129,0,0,0-.9-.144,3.409,3.409,0,0,0-1.168.176,1.587,1.587,0,0,0-.7.48,1.1,1.1,0,0,0-.24.7,1.192,1.192,0,0,0,.272.8,2.084,2.084,0,0,0,.816.5,10.315,10.315,0,0,0,1.264.32,12.461,12.461,0,0,1,1.68.416,3.829,3.829,0,0,1,1.216.624,2.263,2.263,0,0,1,.72.944,3.494,3.494,0,0,1,.24,1.376,2.861,2.861,0,0,1-.576,1.792,3.679,3.679,0,0,1-1.52,1.152A5.038,5.038,0,0,1,87.8,97.16Zm10.763-8.88a2.657,2.657,0,0,1,1.744.5,2.5,2.5,0,0,1,.832,1.328,6.9,6.9,0,0,1,.224,1.824v4.1a.989.989,0,0,1-.272.7,1.006,1.006,0,0,1-1.376,0,.987.987,0,0,1-.272-.7v-4.1a3.209,3.209,0,0,0-.128-.944,1.305,1.305,0,0,0-.464-.688,1.558,1.558,0,0,0-.96-.256,2,2,0,0,0-1.04.256,1.7,1.7,0,0,0-.656.688,2.082,2.082,0,0,0-.208.944v4.1a.987.987,0,0,1-.272.7,1.006,1.006,0,0,1-1.376,0,.987.987,0,0,1-.272-.7V86.136a.932.932,0,0,1,.272-.688.966.966,0,0,1,1.376,0,.933.933,0,0,1,.272.688V90.1l-.24-.048a3.82,3.82,0,0,1,1.024-1.168,3.142,3.142,0,0,1,.816-.432A2.646,2.646,0,0,1,98.563,88.28Zm13.663,4.448a4.492,4.492,0,0,1-.592,2.32,4.136,4.136,0,0,1-1.568,1.552,4.325,4.325,0,0,1-2.192.56,4.411,4.411,0,0,1-2.208-.56,4.288,4.288,0,0,1-1.568-1.552,4.593,4.593,0,0,1-.576-2.32,4.505,4.505,0,0,1,.576-2.3,4.252,4.252,0,0,1,1.568-1.568,4.315,4.315,0,0,1,2.208-.576,4.231,4.231,0,0,1,2.192.576,4.1,4.1,0,0,1,1.568,1.568A4.406,4.406,0,0,1,112.226,92.728Zm-1.92,0a2.807,2.807,0,0,0-.336-1.408,2.352,2.352,0,0,0-.88-.944,2.268,2.268,0,0,0-1.216-.336,2.349,2.349,0,0,0-1.232.336,2.505,2.505,0,0,0-.88.944,2.924,2.924,0,0,0-.32,1.408,2.984,2.984,0,0,0,.32,1.408,2.538,2.538,0,0,0,.88.928,2.349,2.349,0,0,0,1.232.336,2.268,2.268,0,0,0,1.216-.336,2.378,2.378,0,0,0,.88-.928A2.864,2.864,0,0,0,110.306,92.728Zm8.512-4.448a3.568,3.568,0,0,1,2,.576,3.884,3.884,0,0,1,1.408,1.552,4.831,4.831,0,0,1,.528,2.3,4.927,4.927,0,0,1-.528,2.32,4.049,4.049,0,0,1-1.392,1.568,3.509,3.509,0,0,1-1.952.56,3.424,3.424,0,0,1-1.2-.208,4,4,0,0,1-.992-.528,3.426,3.426,0,0,1-.656-.64,1.092,1.092,0,0,1-.224-.56l.5-.208v4.208a.93.93,0,0,1-.272.688.9.9,0,0,1-.688.288.935.935,0,0,1-.688-.272.954.954,0,0,1-.272-.7V89.416a.934.934,0,0,1,.272-.688.966.966,0,0,1,1.376,0,.93.93,0,0,1,.272.688V90.2l-.272-.144a.87.87,0,0,1,.224-.5,2.946,2.946,0,0,1,.608-.592,3.372,3.372,0,0,1,.88-.5A3.032,3.032,0,0,1,118.818,88.28Zm-.24,1.76a2.169,2.169,0,0,0-1.232.352,2.439,2.439,0,0,0-.832.96,3.072,3.072,0,0,0-.288,1.36,3.244,3.244,0,0,0,.288,1.376,2.439,2.439,0,0,0,.832.96,2.169,2.169,0,0,0,1.232.352,2.091,2.091,0,0,0,1.216-.352,2.32,2.32,0,0,0,.816-.96,3.1,3.1,0,0,0,.3-1.376,2.932,2.932,0,0,0-.3-1.36,2.32,2.32,0,0,0-.816-.96A2.091,2.091,0,0,0,118.578,90.04Zm10.767-1.76a3.57,3.57,0,0,1,2,.576,3.892,3.892,0,0,1,1.408,1.552,4.832,4.832,0,0,1,.528,2.3,4.927,4.927,0,0,1-.528,2.32,4.049,4.049,0,0,1-1.392,1.568,3.512,3.512,0,0,1-1.952.56,3.415,3.415,0,0,1-1.2-.208,4,4,0,0,1-.992-.528,3.426,3.426,0,0,1-.656-.64,1.092,1.092,0,0,1-.224-.56l.5-.208v4.208a.934.934,0,0,1-.272.688.906.906,0,0,1-.688.288.934.934,0,0,1-.688-.272.954.954,0,0,1-.272-.7V89.416a.934.934,0,0,1,.272-.688.966.966,0,0,1,1.376,0,.934.934,0,0,1,.272.688V90.2l-.272-.144a.87.87,0,0,1,.224-.5,2.921,2.921,0,0,1,.608-.592,3.356,3.356,0,0,1,.88-.5A3.028,3.028,0,0,1,129.345,88.28Zm-.24,1.76a2.169,2.169,0,0,0-1.232.352,2.439,2.439,0,0,0-.832.96,3.072,3.072,0,0,0-.288,1.36,3.244,3.244,0,0,0,.288,1.376,2.439,2.439,0,0,0,.832.96,2.169,2.169,0,0,0,1.232.352,2.093,2.093,0,0,0,1.216-.352,2.32,2.32,0,0,0,.816-.96,3.1,3.1,0,0,0,.3-1.376,2.932,2.932,0,0,0-.3-1.36,2.32,2.32,0,0,0-.816-.96A2.093,2.093,0,0,0,129.1,90.04Zm8.143,5.984a.989.989,0,0,1-.272.7,1.006,1.006,0,0,1-1.376,0,.989.989,0,0,1-.272-.7V89.416a.934.934,0,0,1,.272-.688.966.966,0,0,1,1.376,0,.934.934,0,0,1,.272.688Zm-.976-8.624a1.27,1.27,0,0,1-.768-.176.753.753,0,0,1-.224-.624v-.3a.7.7,0,0,1,.24-.624,1.364,1.364,0,0,1,.768-.176,1.306,1.306,0,0,1,.784.176.753.753,0,0,1,.224.624v.3a.746.746,0,0,1-.24.64A1.458,1.458,0,0,1,136.272,87.4Zm8,.88a2.78,2.78,0,0,1,1.792.5,2.458,2.458,0,0,1,.848,1.328,6.456,6.456,0,0,1,.24,1.824v4.1a.984.984,0,0,1-.272.7,1.006,1.006,0,0,1-1.376,0,.989.989,0,0,1-.272-.7v-4.1a2.877,2.877,0,0,0-.144-.944,1.269,1.269,0,0,0-.48-.688,1.692,1.692,0,0,0-1.008-.256,2.163,2.163,0,0,0-1.088.256,1.809,1.809,0,0,0-.672.688,1.963,1.963,0,0,0-.224.944v4.1a.984.984,0,0,1-.272.7,1.006,1.006,0,0,1-1.376,0,.989.989,0,0,1-.272-.7V89.416a.934.934,0,0,1,.272-.688.966.966,0,0,1,1.376,0,.93.93,0,0,1,.272.688V90.1l-.24-.048a2.981,2.981,0,0,1,.416-.576,3.834,3.834,0,0,1,.64-.592,3.093,3.093,0,0,1,.832-.432A2.825,2.825,0,0,1,144.277,88.28Zm8.988,0a3.515,3.515,0,0,1,1.232.208,3.453,3.453,0,0,1,.96.528,2.852,2.852,0,0,1,.64.656.978.978,0,0,1,.24.544l-.416.208V89.256a.93.93,0,0,1,.272-.688.9.9,0,0,1,.688-.288.934.934,0,0,1,.688.272.954.954,0,0,1,.272.7v7.12a3.691,3.691,0,0,1-.608,2.224,3.284,3.284,0,0,1-1.568,1.216,5.381,5.381,0,0,1-2.928.3q-.513-.08-.976-.192a5.452,5.452,0,0,1-.7-.208,1.4,1.4,0,0,1-.672-.528.778.778,0,0,1-.064-.656,1.033,1.033,0,0,1,.464-.64.818.818,0,0,1,.672-.032q.159.048.528.192a7.041,7.041,0,0,0,.8.256,2.9,2.9,0,0,0,.784.128,2.738,2.738,0,0,0,1.776-.48,1.635,1.635,0,0,0,.576-1.328V95.24l.192.144a.937.937,0,0,1-.224.512,2.787,2.787,0,0,1-.592.576,3.666,3.666,0,0,1-.88.5,3.076,3.076,0,0,1-1.088.192,3.834,3.834,0,0,1-2.048-.56,4.087,4.087,0,0,1-1.44-1.568,4.892,4.892,0,0,1-.528-2.3,4.831,4.831,0,0,1,.528-2.3,3.976,3.976,0,0,1,1.424-1.568A3.62,3.62,0,0,1,153.265,88.28Zm.3,1.76a2.273,2.273,0,0,0-1.264.352,2.385,2.385,0,0,0-.848.96,3.03,3.03,0,0,0-.3,1.376,2.994,2.994,0,0,0,.3,1.36,2.385,2.385,0,0,0,.848.96,2.273,2.273,0,0,0,1.264.352,2.306,2.306,0,0,0,1.28-.352,2.4,2.4,0,0,0,.848-.96,3.007,3.007,0,0,0,.3-1.36,3.044,3.044,0,0,0-.3-1.376,2.4,2.4,0,0,0-.848-.96A2.306,2.306,0,0,0,153.569,90.04Z" fill="#0f172a"/>
    <path id="Path_19" data-name="Path 19" d="M86.6,114.12a5.2,5.2,0,0,1-1.512-.2,3.7,3.7,0,0,1-1.284-.744.947.947,0,0,1-.24-.3.746.746,0,0,1-.084-.336.677.677,0,0,1,.192-.48.666.666,0,0,1,.5-.216.636.636,0,0,1,.408.144,3.868,3.868,0,0,0,.9.564,2.877,2.877,0,0,0,1.116.192,2.425,2.425,0,0,0,.816-.132,1.705,1.705,0,0,0,.6-.372.765.765,0,0,0,.228-.54.908.908,0,0,0-.216-.612,1.594,1.594,0,0,0-.66-.42,4.84,4.84,0,0,0-1.128-.276,5.267,5.267,0,0,1-1.14-.288,2.9,2.9,0,0,1-.828-.5,2.1,2.1,0,0,1-.492-.72,2.5,2.5,0,0,1-.168-.936,2.224,2.224,0,0,1,.4-1.332,2.56,2.56,0,0,1,1.092-.84,3.859,3.859,0,0,1,1.512-.288,4.184,4.184,0,0,1,1.44.24,3.279,3.279,0,0,1,1.092.588.8.8,0,0,1,.348.636.684.684,0,0,1-.2.48.64.64,0,0,1-.48.216.527.527,0,0,1-.324-.108,2.044,2.044,0,0,0-.516-.312,3.872,3.872,0,0,0-.684-.252,2.346,2.346,0,0,0-.672-.108,2.557,2.557,0,0,0-.876.132,1.191,1.191,0,0,0-.528.36.828.828,0,0,0-.18.528.894.894,0,0,0,.2.6,1.563,1.563,0,0,0,.612.372,7.733,7.733,0,0,0,.948.24,9.349,9.349,0,0,1,1.26.312,2.872,2.872,0,0,1,.912.468,1.7,1.7,0,0,1,.54.708,2.621,2.621,0,0,1,.18,1.032,2.146,2.146,0,0,1-.432,1.344,2.759,2.759,0,0,1-1.14.864A3.779,3.779,0,0,1,86.6,114.12Zm.864.648a.738.738,0,0,1-.732.732.666.666,0,0,1-.5-.216.7.7,0,0,1-.2-.516V105.12a.7.7,0,0,1,.2-.516.718.718,0,0,1,.528-.216.642.642,0,0,1,.5.216.7.7,0,0,1,.2.516ZM93.376,114a.772.772,0,0,1-.552-.2.718.718,0,0,1-.216-.528V107.22l.168.264-.876.648a.659.659,0,0,1-.42.132.691.691,0,0,1-.5-.216.7.7,0,0,1-.216-.516.719.719,0,0,1,.372-.624l1.728-1.152a.791.791,0,0,1,.264-.12,1.287,1.287,0,0,1,.288-.036.723.723,0,0,1,.552.216.7.7,0,0,1,.2.516v6.936a.7.7,0,0,1-.228.528A.788.788,0,0,1,93.376,114Zm7.664-1.32a.656.656,0,0,1,.672.672.637.637,0,0,1-.192.468.675.675,0,0,1-.48.18H96.96a.642.642,0,0,1-.492-.192.691.691,0,0,1-.18-.492.745.745,0,0,1,.216-.528l2.616-2.8a4.273,4.273,0,0,0,.7-.984,1.953,1.953,0,0,0,.264-.876,1.323,1.323,0,0,0-.348-.96,1.205,1.205,0,0,0-.924-.372,1.136,1.136,0,0,0-.468.108,2.009,2.009,0,0,0-.468.3,3.126,3.126,0,0,0-.408.444.64.64,0,0,1-.288.24.841.841,0,0,1-.264.048.75.75,0,0,1-.492-.192.627.627,0,0,1-.216-.468.691.691,0,0,1,.132-.4,3.738,3.738,0,0,1,.348-.4,3.625,3.625,0,0,1,.672-.528,3.3,3.3,0,0,1,.768-.348,2.423,2.423,0,0,1,.768-.132,2.84,2.84,0,0,1,1.392.324,2.18,2.18,0,0,1,.924.9,2.746,2.746,0,0,1,.324,1.368,3.434,3.434,0,0,1-.4,1.476,6.026,6.026,0,0,1-1.044,1.512l-1.62,1.728-.132-.108Zm5.116,1.44a2.593,2.593,0,0,1-1.176-.264,2.83,2.83,0,0,1-.888-.744,3.715,3.715,0,0,1-.564-1.056,3.88,3.88,0,0,1-.192-1.212,6.376,6.376,0,0,1,.408-2.2,5.493,5.493,0,0,1,.636-1.236,4.7,4.7,0,0,1,1.032-1.08,4.555,4.555,0,0,1,1.548-.732,1.138,1.138,0,0,1,.276-.036.867.867,0,0,1,.492.144.575.575,0,0,1,.228.528.687.687,0,0,1-.18.468.937.937,0,0,1-.456.276,3.634,3.634,0,0,0-.816.36,3.8,3.8,0,0,0-.744.564,3.756,3.756,0,0,0-.588.768,3.216,3.216,0,0,0-.348.912l-.324-.012a4.912,4.912,0,0,1,.408-.432,2.331,2.331,0,0,1,.6-.408,1.856,1.856,0,0,1,.84-.18,2.139,2.139,0,0,1,.924.216,3.056,3.056,0,0,1,1.452,1.488,2.59,2.59,0,0,1,.228,1.08,2.665,2.665,0,0,1-.384,1.4,2.768,2.768,0,0,1-1.008,1.008A2.689,2.689,0,0,1,106.156,114.12Zm0-1.32a1.241,1.241,0,0,0,.684-.192,1.362,1.362,0,0,0,.492-.528,1.55,1.55,0,0,0,.18-.744,1.506,1.506,0,0,0-.18-.744,1.361,1.361,0,0,0-.492-.528,1.241,1.241,0,0,0-.684-.192,1.3,1.3,0,0,0-.7.192,1.394,1.394,0,0,0-.48.528,1.506,1.506,0,0,0-.18.744,1.55,1.55,0,0,0,.18.744,1.394,1.394,0,0,0,.48.528A1.3,1.3,0,0,0,106.156,112.8Zm14.3-2a3.371,3.371,0,0,1-.444,1.74,3.1,3.1,0,0,1-1.176,1.164,3.244,3.244,0,0,1-1.644.42,3.31,3.31,0,0,1-1.656-.42,3.216,3.216,0,0,1-1.176-1.164,3.445,3.445,0,0,1-.432-1.74,3.379,3.379,0,0,1,.432-1.728,3.189,3.189,0,0,1,1.176-1.176,3.238,3.238,0,0,1,1.656-.432,3.173,3.173,0,0,1,1.644.432,3.075,3.075,0,0,1,1.176,1.176A3.307,3.307,0,0,1,120.46,110.8Zm-1.44,0a2.105,2.105,0,0,0-.252-1.056,1.764,1.764,0,0,0-.66-.708,1.7,1.7,0,0,0-.912-.252,1.762,1.762,0,0,0-.924.252,1.881,1.881,0,0,0-.66.708,2.19,2.19,0,0,0-.24,1.056,2.235,2.235,0,0,0,.24,1.056,1.905,1.905,0,0,0,.66.7,1.762,1.762,0,0,0,.924.252,1.7,1.7,0,0,0,.912-.252,1.784,1.784,0,0,0,.66-.7A2.148,2.148,0,0,0,119.02,110.8Zm6.361-5.676a1.869,1.869,0,0,1,.516.072.951.951,0,0,1,.42.24.545.545,0,0,1,.168.42.649.649,0,0,1-.18.48.542.542,0,0,1-.4.168,1.648,1.648,0,0,1-.324-.048,1.566,1.566,0,0,0-.42-.06.74.74,0,0,0-.468.132.691.691,0,0,0-.216.312.905.905,0,0,0-.06.3v6.132a.74.74,0,0,1-.2.528.755.755,0,0,1-1.032,0,.74.74,0,0,1-.2-.528v-6.12a1.939,1.939,0,0,1,.6-1.44A2.476,2.476,0,0,1,125.381,105.12Zm.132,2.58a.651.651,0,0,1,.48.192.612.612,0,0,1,.192.468.651.651,0,0,1-.192.48.675.675,0,0,1-.48.18h-3.18a.675.675,0,0,1-.48-.18.651.651,0,0,1-.192-.48.612.612,0,0,1,.192-.468.651.651,0,0,1,.48-.192Zm8.709,6.42a5.2,5.2,0,0,1-1.512-.2,3.7,3.7,0,0,1-1.284-.744.947.947,0,0,1-.24-.3.746.746,0,0,1-.084-.336.677.677,0,0,1,.192-.48.666.666,0,0,1,.5-.216.636.636,0,0,1,.408.144,3.868,3.868,0,0,0,.9.564,2.877,2.877,0,0,0,1.116.192,2.425,2.425,0,0,0,.816-.132,1.706,1.706,0,0,0,.6-.372.765.765,0,0,0,.228-.54.908.908,0,0,0-.216-.612,1.594,1.594,0,0,0-.66-.42,4.841,4.841,0,0,0-1.128-.276,5.267,5.267,0,0,1-1.14-.288,2.9,2.9,0,0,1-.828-.5,2.1,2.1,0,0,1-.492-.72,2.5,2.5,0,0,1-.168-.936,2.224,2.224,0,0,1,.4-1.332,2.56,2.56,0,0,1,1.092-.84,3.859,3.859,0,0,1,1.512-.288,4.184,4.184,0,0,1,1.44.24,3.28,3.28,0,0,1,1.092.588.8.8,0,0,1,.348.636.684.684,0,0,1-.2.48.64.64,0,0,1-.48.216.526.526,0,0,1-.324-.108,2.044,2.044,0,0,0-.516-.312,3.873,3.873,0,0,0-.684-.252,2.347,2.347,0,0,0-.672-.108,2.557,2.557,0,0,0-.876.132,1.191,1.191,0,0,0-.528.36.828.828,0,0,0-.18.528.894.894,0,0,0,.2.6,1.563,1.563,0,0,0,.612.372,7.733,7.733,0,0,0,.948.24,9.349,9.349,0,0,1,1.26.312,2.872,2.872,0,0,1,.912.468,1.7,1.7,0,0,1,.54.708,2.621,2.621,0,0,1,.18,1.032,2.146,2.146,0,0,1-.432,1.344,2.759,2.759,0,0,1-1.14.864A3.779,3.779,0,0,1,134.222,114.12Zm.864.648a.738.738,0,0,1-.732.732.666.666,0,0,1-.5-.216.7.7,0,0,1-.2-.516V105.12a.7.7,0,0,1,.2-.516.718.718,0,0,1,.528-.216.642.642,0,0,1,.5.216.7.7,0,0,1,.2.516Zm7.688-5.028-.024-.276a2.743,2.743,0,0,1,.792.528,2.4,2.4,0,0,1,.516.708,1.846,1.846,0,0,1,.18.792,2.225,2.225,0,0,1-.384,1.26,2.78,2.78,0,0,1-1.008.912,3.152,3.152,0,0,1-2.832,0,2.886,2.886,0,0,1-1.02-.912,2.276,2.276,0,0,1-.372-1.26,1.869,1.869,0,0,1,.228-.948,2.442,2.442,0,0,1,.588-.684,4.781,4.781,0,0,1,.708-.456l-.1.336a2.577,2.577,0,0,1-.588-.336,1.82,1.82,0,0,1-.456-.576,1.753,1.753,0,0,1-.18-.816,2.19,2.19,0,0,1,.348-1.212,2.528,2.528,0,0,1,.936-.876,2.733,2.733,0,0,1,1.32-.324,2.621,2.621,0,0,1,1.308.324,2.528,2.528,0,0,1,.936.876,2.189,2.189,0,0,1,.348,1.212,1.684,1.684,0,0,1-.2.864,1.742,1.742,0,0,1-.492.552A2.8,2.8,0,0,1,142.774,109.74Zm-2.508-1.7a1.14,1.14,0,0,0,.144.576,1.208,1.208,0,0,0,.42.408,1.232,1.232,0,0,0,.6.144,1.165,1.165,0,0,0,.588-.144,1.109,1.109,0,0,0,.408-.408,1.072,1.072,0,0,0,.156-.576,1.034,1.034,0,0,0-.336-.792,1.106,1.106,0,0,0-.816-.324,1.162,1.162,0,0,0-.84.324A1.052,1.052,0,0,0,140.266,108.036Zm1.164,4.644a1.42,1.42,0,0,0,.972-.348,1.153,1.153,0,0,0,.216-1.488,1.231,1.231,0,0,0-.492-.432,1.526,1.526,0,0,0-1.392,0,1.231,1.231,0,0,0-.492.432,1.153,1.153,0,0,0,.216,1.488A1.42,1.42,0,0,0,141.43,112.68Zm7.331,1.44a2.837,2.837,0,0,1-1.752-.54,3.434,3.434,0,0,1-1.08-1.524,7.027,7.027,0,0,1,0-4.512,3.351,3.351,0,0,1,1.08-1.512,2.794,2.794,0,0,1,1.752-.552,2.744,2.744,0,0,1,1.74.552,3.313,3.313,0,0,1,1.092,1.512,7.027,7.027,0,0,1,0,4.512,3.393,3.393,0,0,1-1.092,1.524A2.785,2.785,0,0,1,148.761,114.12Zm0-1.44a1.275,1.275,0,0,0,.864-.312,2.083,2.083,0,0,0,.576-.96,5.425,5.425,0,0,0,.2-1.608,5.352,5.352,0,0,0-.2-1.608,2,2,0,0,0-.576-.948,1.247,1.247,0,0,0-.864-.324,1.275,1.275,0,0,0-.864.324,2,2,0,0,0-.576.948,5.352,5.352,0,0,0-.2,1.608,5.425,5.425,0,0,0,.2,1.608,2.083,2.083,0,0,0,.576.96A1.3,1.3,0,0,0,148.761,112.68Zm7.731,1.44a2.837,2.837,0,0,1-1.752-.54,3.434,3.434,0,0,1-1.08-1.524,7.027,7.027,0,0,1,0-4.512,3.351,3.351,0,0,1,1.08-1.512,2.794,2.794,0,0,1,1.752-.552,2.744,2.744,0,0,1,1.74.552,3.313,3.313,0,0,1,1.092,1.512,7.027,7.027,0,0,1,0,4.512,3.393,3.393,0,0,1-1.092,1.524A2.785,2.785,0,0,1,156.492,114.12Zm0-1.44a1.275,1.275,0,0,0,.864-.312,2.083,2.083,0,0,0,.576-.96,5.426,5.426,0,0,0,.2-1.608,5.352,5.352,0,0,0-.2-1.608,2,2,0,0,0-.576-.948,1.247,1.247,0,0,0-.864-.324,1.275,1.275,0,0,0-.864.324,2,2,0,0,0-.576.948,5.352,5.352,0,0,0-.2,1.608,5.425,5.425,0,0,0,.2,1.608,2.083,2.083,0,0,0,.576.96A1.3,1.3,0,0,0,156.492,112.68Z" fill="#9ca3af"/>
    <rect id="Rectangle_11" data-name="Rectangle 11" width="36" height="36" rx="4" transform="translate(31 83)" fill="#f87171"/>
    <path id="Path_20" data-name="Path 20" d="M47,96.5a2,2,0,0,1,4,0V98H47ZM45.5,98h-2A1.5,1.5,0,0,0,42,99.5V106a3,3,0,0,0,3,3h8a3,3,0,0,0,3-3V99.5A1.5,1.5,0,0,0,54.5,98h-2V96.5a3.5,3.5,0,0,0-7,0Zm.75,1.5a.75.75,0,1,1-.53.22A.75.75,0,0,1,46.25,99.5Zm4.75.75a.751.751,0,1,1,.22.53A.749.749,0,0,1,51,100.25Z" fill="#fff"/>
    <path id="Path_21" data-name="Path 21" d="M359.807,90.193a1.145,1.145,0,0,1,0,1.617l-6.855,6.855a1.143,1.143,0,0,1-1.617-1.617L357.383,91l-6.045-6.048a1.144,1.144,0,1,1,1.618-1.617l6.854,6.855Z" fill="#e5e7eb"/>
    <rect id="Rectangle_12" data-name="Rectangle 12" width="345" height="1" rx="0.5" transform="translate(31 187)" fill="#e5e7eb"/>
    <path id="Path_22" data-name="Path 22" d="M85.208,155a1.03,1.03,0,0,1-.736-.272.988.988,0,0,1-.272-.7v-9.248a.933.933,0,0,1,.272-.688.958.958,0,0,1,.7-.288h5.2a.934.934,0,0,1,.688.272.857.857,0,0,1,.288.672.835.835,0,0,1-.288.624.934.934,0,0,1-.688.272h-4.32l.144-.192v3.216l-.112-.208h3.568a.934.934,0,0,1,.688.272.857.857,0,0,1,.288.672.835.835,0,0,1-.288.624.934.934,0,0,1-.688.272h-3.6l.144-.144v3.872a.933.933,0,0,1-.3.7A.969.969,0,0,1,85.208,155Zm16.366-4.272a4.491,4.491,0,0,1-.592,2.32,4.136,4.136,0,0,1-1.568,1.552,4.328,4.328,0,0,1-2.192.56,4.416,4.416,0,0,1-2.208-.56,4.289,4.289,0,0,1-1.568-1.552,4.592,4.592,0,0,1-.576-2.32,4.5,4.5,0,0,1,.576-2.3,4.25,4.25,0,0,1,1.568-1.568,4.317,4.317,0,0,1,2.208-.576,4.231,4.231,0,0,1,2.192.576,4.1,4.1,0,0,1,1.568,1.568A4.4,4.4,0,0,1,101.574,150.728Zm-1.92,0a2.808,2.808,0,0,0-.336-1.408,2.353,2.353,0,0,0-.88-.944,2.267,2.267,0,0,0-1.216-.336,2.35,2.35,0,0,0-1.232.336,2.51,2.51,0,0,0-.88.944,2.921,2.921,0,0,0-.32,1.408,2.98,2.98,0,0,0,.32,1.408,2.538,2.538,0,0,0,.88.928,2.35,2.35,0,0,0,1.232.336,2.268,2.268,0,0,0,1.216-.336,2.376,2.376,0,0,0,.88-.928A2.864,2.864,0,0,0,99.654,150.728Zm12.384,0a4.491,4.491,0,0,1-.592,2.32,4.129,4.129,0,0,1-1.568,1.552,4.326,4.326,0,0,1-2.192.56,4.42,4.42,0,0,1-2.208-.56,4.3,4.3,0,0,1-1.568-1.552,4.592,4.592,0,0,1-.576-2.32,4.5,4.5,0,0,1,.576-2.3,4.257,4.257,0,0,1,1.568-1.568,4.32,4.32,0,0,1,2.208-.576,4.229,4.229,0,0,1,2.192.576,4.094,4.094,0,0,1,1.568,1.568A4.4,4.4,0,0,1,112.038,150.728Zm-1.92,0a2.808,2.808,0,0,0-.336-1.408,2.347,2.347,0,0,0-.88-.944,2.266,2.266,0,0,0-1.216-.336,2.351,2.351,0,0,0-1.232.336,2.515,2.515,0,0,0-.88.944,2.925,2.925,0,0,0-.32,1.408,2.983,2.983,0,0,0,.32,1.408,2.543,2.543,0,0,0,.88.928,2.351,2.351,0,0,0,1.232.336,2.266,2.266,0,0,0,1.216-.336,2.369,2.369,0,0,0,.88-.928A2.864,2.864,0,0,0,110.118,150.728Zm11.089-7.568a.935.935,0,0,1,.688.272.953.953,0,0,1,.272.7v9.888a.989.989,0,0,1-.272.7,1.006,1.006,0,0,1-1.376,0,.985.985,0,0,1-.272-.7v-.784l.352.144a.937.937,0,0,1-.224.512,3.206,3.206,0,0,1-.608.576,3.9,3.9,0,0,1-.912.5,3.17,3.17,0,0,1-1.12.192,3.7,3.7,0,0,1-2-.56,4.128,4.128,0,0,1-1.424-1.568,5.009,5.009,0,0,1-.512-2.3,4.946,4.946,0,0,1,.512-2.3,4.02,4.02,0,0,1,1.408-1.568,3.487,3.487,0,0,1,1.952-.576,3.7,3.7,0,0,1,2.256.736,2.729,2.729,0,0,1,.656.656.978.978,0,0,1,.24.544l-.576.208v-4.288a.93.93,0,0,1,.272-.688A.9.9,0,0,1,121.207,143.16Zm-3.232,10.24a2.167,2.167,0,0,0,1.232-.352,2.324,2.324,0,0,0,.816-.96,3.007,3.007,0,0,0,.3-1.36,3.043,3.043,0,0,0-.3-1.376,2.324,2.324,0,0,0-.816-.96,2.167,2.167,0,0,0-1.232-.352,2.138,2.138,0,0,0-1.216.352,2.435,2.435,0,0,0-.832.96,3.175,3.175,0,0,0-.288,1.376,3.137,3.137,0,0,0,.288,1.36,2.435,2.435,0,0,0,.832.96A2.138,2.138,0,0,0,117.975,153.4Z" fill="#0f172a"/>
    <path id="Path_23" data-name="Path 23" d="M86.6,172.12a5.2,5.2,0,0,1-1.512-.2,3.7,3.7,0,0,1-1.284-.744.947.947,0,0,1-.24-.3.746.746,0,0,1-.084-.336.677.677,0,0,1,.192-.48.666.666,0,0,1,.5-.216.636.636,0,0,1,.408.144,3.868,3.868,0,0,0,.9.564,2.877,2.877,0,0,0,1.116.192,2.425,2.425,0,0,0,.816-.132,1.705,1.705,0,0,0,.6-.372.765.765,0,0,0,.228-.54.908.908,0,0,0-.216-.612,1.594,1.594,0,0,0-.66-.42,4.84,4.84,0,0,0-1.128-.276,5.267,5.267,0,0,1-1.14-.288,2.9,2.9,0,0,1-.828-.5,2.1,2.1,0,0,1-.492-.72,2.5,2.5,0,0,1-.168-.936,2.224,2.224,0,0,1,.4-1.332,2.56,2.56,0,0,1,1.092-.84,3.859,3.859,0,0,1,1.512-.288,4.184,4.184,0,0,1,1.44.24,3.279,3.279,0,0,1,1.092.588.8.8,0,0,1,.348.636.684.684,0,0,1-.2.48.64.64,0,0,1-.48.216.526.526,0,0,1-.324-.108,2.043,2.043,0,0,0-.516-.312,3.872,3.872,0,0,0-.684-.252,2.346,2.346,0,0,0-.672-.108,2.557,2.557,0,0,0-.876.132,1.19,1.19,0,0,0-.528.36.828.828,0,0,0-.18.528.894.894,0,0,0,.2.6,1.563,1.563,0,0,0,.612.372,7.732,7.732,0,0,0,.948.24,9.348,9.348,0,0,1,1.26.312,2.872,2.872,0,0,1,.912.468,1.7,1.7,0,0,1,.54.708,2.621,2.621,0,0,1,.18,1.032,2.146,2.146,0,0,1-.432,1.344,2.759,2.759,0,0,1-1.14.864A3.779,3.779,0,0,1,86.6,172.12Zm.864.648a.738.738,0,0,1-.732.732.666.666,0,0,1-.5-.216.7.7,0,0,1-.2-.516V163.12a.7.7,0,0,1,.2-.516.718.718,0,0,1,.528-.216.642.642,0,0,1,.5.216.7.7,0,0,1,.2.516Zm7.688-5.028-.024-.276a2.742,2.742,0,0,1,.792.528,2.4,2.4,0,0,1,.516.708,1.846,1.846,0,0,1,.18.792,2.225,2.225,0,0,1-.384,1.26,2.78,2.78,0,0,1-1.008.912,3.152,3.152,0,0,1-2.832,0,2.886,2.886,0,0,1-1.02-.912,2.276,2.276,0,0,1-.372-1.26,1.869,1.869,0,0,1,.228-.948,2.442,2.442,0,0,1,.588-.684,4.78,4.78,0,0,1,.708-.456l-.1.336a2.577,2.577,0,0,1-.588-.336,1.82,1.82,0,0,1-.456-.576,1.753,1.753,0,0,1-.18-.816,2.189,2.189,0,0,1,.348-1.212,2.528,2.528,0,0,1,.936-.876,2.733,2.733,0,0,1,1.32-.324,2.621,2.621,0,0,1,1.308.324,2.528,2.528,0,0,1,.936.876,2.189,2.189,0,0,1,.348,1.212,1.684,1.684,0,0,1-.2.864,1.742,1.742,0,0,1-.492.552A2.8,2.8,0,0,1,95.152,167.74Zm-2.508-1.7a1.14,1.14,0,0,0,.144.576,1.208,1.208,0,0,0,.42.408,1.233,1.233,0,0,0,.6.144,1.165,1.165,0,0,0,.588-.144,1.109,1.109,0,0,0,.408-.408,1.072,1.072,0,0,0,.156-.576,1.034,1.034,0,0,0-.336-.792,1.106,1.106,0,0,0-.816-.324,1.162,1.162,0,0,0-.84.324A1.052,1.052,0,0,0,92.644,166.036Zm1.164,4.644a1.42,1.42,0,0,0,.972-.348A1.153,1.153,0,0,0,95,168.844a1.231,1.231,0,0,0-.492-.432,1.526,1.526,0,0,0-1.392,0,1.231,1.231,0,0,0-.492.432,1.153,1.153,0,0,0,.216,1.488A1.42,1.42,0,0,0,93.808,170.68Zm8.314,1.32a.685.685,0,0,1-.5-.2.74.74,0,0,1-.2-.528v-5.64l.252.06-2.316,2.868-.06-.156h4.248a.656.656,0,0,1,.672.672.637.637,0,0,1-.192.468.675.675,0,0,1-.48.18H98.294a.756.756,0,0,1-.492-.2.65.65,0,0,1-.228-.5.732.732,0,0,1,.18-.48l3.792-4.644a.633.633,0,0,1,.252-.2.722.722,0,0,1,.348-.084.642.642,0,0,1,.5.216.7.7,0,0,1,.2.516v6.936a.718.718,0,0,1-.216.528A.7.7,0,0,1,102.122,172Zm13.478-3.2a3.371,3.371,0,0,1-.444,1.74,3.1,3.1,0,0,1-1.176,1.164,3.244,3.244,0,0,1-1.644.42,3.31,3.31,0,0,1-1.656-.42,3.216,3.216,0,0,1-1.176-1.164,3.445,3.445,0,0,1-.432-1.74,3.379,3.379,0,0,1,.432-1.728,3.189,3.189,0,0,1,1.176-1.176,3.238,3.238,0,0,1,1.656-.432,3.173,3.173,0,0,1,1.644.432,3.075,3.075,0,0,1,1.176,1.176A3.307,3.307,0,0,1,115.6,168.8Zm-1.44,0a2.105,2.105,0,0,0-.252-1.056,1.764,1.764,0,0,0-.66-.708,1.7,1.7,0,0,0-.912-.252,1.762,1.762,0,0,0-.924.252,1.881,1.881,0,0,0-.66.708,2.19,2.19,0,0,0-.24,1.056,2.235,2.235,0,0,0,.24,1.056,1.905,1.905,0,0,0,.66.7,1.762,1.762,0,0,0,.924.252,1.7,1.7,0,0,0,.912-.252,1.784,1.784,0,0,0,.66-.7A2.148,2.148,0,0,0,114.16,168.8Zm6.361-5.676a1.869,1.869,0,0,1,.516.072.951.951,0,0,1,.42.24.545.545,0,0,1,.168.42.649.649,0,0,1-.18.48.542.542,0,0,1-.4.168,1.648,1.648,0,0,1-.324-.048,1.566,1.566,0,0,0-.42-.06.74.74,0,0,0-.468.132.691.691,0,0,0-.216.312.905.905,0,0,0-.06.3v6.132a.74.74,0,0,1-.2.528.755.755,0,0,1-1.032,0,.74.74,0,0,1-.2-.528v-6.12a1.939,1.939,0,0,1,.6-1.44A2.476,2.476,0,0,1,120.521,163.12Zm.132,2.58a.651.651,0,0,1,.48.192.612.612,0,0,1,.192.468.651.651,0,0,1-.192.48.675.675,0,0,1-.48.18h-3.18a.675.675,0,0,1-.48-.18.651.651,0,0,1-.192-.48.612.612,0,0,1,.192-.468.651.651,0,0,1,.48-.192Zm8.709,6.42a5.2,5.2,0,0,1-1.512-.2,3.7,3.7,0,0,1-1.284-.744.947.947,0,0,1-.24-.3.746.746,0,0,1-.084-.336.677.677,0,0,1,.192-.48.666.666,0,0,1,.5-.216.636.636,0,0,1,.408.144,3.868,3.868,0,0,0,.9.564,2.877,2.877,0,0,0,1.116.192,2.425,2.425,0,0,0,.816-.132,1.705,1.705,0,0,0,.6-.372.765.765,0,0,0,.228-.54.908.908,0,0,0-.216-.612,1.594,1.594,0,0,0-.66-.42,4.841,4.841,0,0,0-1.128-.276,5.267,5.267,0,0,1-1.14-.288,2.9,2.9,0,0,1-.828-.5,2.1,2.1,0,0,1-.492-.72,2.5,2.5,0,0,1-.168-.936,2.224,2.224,0,0,1,.4-1.332,2.56,2.56,0,0,1,1.092-.84,3.859,3.859,0,0,1,1.512-.288,4.184,4.184,0,0,1,1.44.24,3.279,3.279,0,0,1,1.092.588.8.8,0,0,1,.348.636.684.684,0,0,1-.2.48.64.64,0,0,1-.48.216.526.526,0,0,1-.324-.108,2.043,2.043,0,0,0-.516-.312,3.872,3.872,0,0,0-.684-.252,2.346,2.346,0,0,0-.672-.108,2.557,2.557,0,0,0-.876.132,1.19,1.19,0,0,0-.528.36.828.828,0,0,0-.18.528.894.894,0,0,0,.2.6,1.563,1.563,0,0,0,.612.372,7.732,7.732,0,0,0,.948.24,9.348,9.348,0,0,1,1.26.312,2.872,2.872,0,0,1,.912.468,1.7,1.7,0,0,1,.54.708,2.621,2.621,0,0,1,.18,1.032,2.146,2.146,0,0,1-.432,1.344,2.759,2.759,0,0,1-1.14.864A3.779,3.779,0,0,1,129.362,172.12Zm.864.648a.738.738,0,0,1-.732.732.666.666,0,0,1-.5-.216.7.7,0,0,1-.2-.516V163.12a.7.7,0,0,1,.2-.516.718.718,0,0,1,.528-.216.642.642,0,0,1,.5.216.7.7,0,0,1,.2.516Zm8.552-2.088a.656.656,0,0,1,.672.672.637.637,0,0,1-.192.468.675.675,0,0,1-.48.18H134.7a.642.642,0,0,1-.492-.192.691.691,0,0,1-.18-.492.745.745,0,0,1,.216-.528l2.616-2.8a4.273,4.273,0,0,0,.7-.984,1.953,1.953,0,0,0,.264-.876,1.323,1.323,0,0,0-.348-.96,1.205,1.205,0,0,0-.924-.372,1.136,1.136,0,0,0-.468.108,2.009,2.009,0,0,0-.468.3,3.127,3.127,0,0,0-.408.444.64.64,0,0,1-.288.24.841.841,0,0,1-.264.048.75.75,0,0,1-.492-.192.627.627,0,0,1-.216-.468.69.69,0,0,1,.132-.4,3.734,3.734,0,0,1,.348-.4,3.624,3.624,0,0,1,.672-.528,3.3,3.3,0,0,1,.768-.348,2.423,2.423,0,0,1,.768-.132,2.841,2.841,0,0,1,1.392.324,2.18,2.18,0,0,1,.924.9,2.747,2.747,0,0,1,.324,1.368,3.434,3.434,0,0,1-.4,1.476,6.025,6.025,0,0,1-1.044,1.512l-1.62,1.728-.132-.108Zm6.364,1.32a.685.685,0,0,1-.5-.2.74.74,0,0,1-.2-.528v-5.64l.252.06-2.316,2.868-.06-.156h4.248a.656.656,0,0,1,.672.672.637.637,0,0,1-.192.468.675.675,0,0,1-.48.18h-5.244a.756.756,0,0,1-.492-.2.65.65,0,0,1-.228-.5.732.732,0,0,1,.18-.48l3.792-4.644a.633.633,0,0,1,.252-.2.722.722,0,0,1,.348-.084.642.642,0,0,1,.5.216.7.7,0,0,1,.2.516v6.936a.718.718,0,0,1-.216.528A.7.7,0,0,1,145.142,172Zm6.431.12a2.837,2.837,0,0,1-1.752-.54,3.434,3.434,0,0,1-1.08-1.524,7.027,7.027,0,0,1,0-4.512,3.351,3.351,0,0,1,1.08-1.512,2.794,2.794,0,0,1,1.752-.552,2.744,2.744,0,0,1,1.74.552,3.313,3.313,0,0,1,1.092,1.512,7.027,7.027,0,0,1,0,4.512,3.393,3.393,0,0,1-1.092,1.524A2.785,2.785,0,0,1,151.573,172.12Zm0-1.44a1.275,1.275,0,0,0,.864-.312,2.083,2.083,0,0,0,.576-.96,5.425,5.425,0,0,0,.2-1.608,5.352,5.352,0,0,0-.2-1.608,2,2,0,0,0-.576-.948,1.247,1.247,0,0,0-.864-.324,1.275,1.275,0,0,0-.864.324,2,2,0,0,0-.576.948,5.352,5.352,0,0,0-.2,1.608,5.425,5.425,0,0,0,.2,1.608,2.083,2.083,0,0,0,.576.96A1.3,1.3,0,0,0,151.573,170.68Z" fill="#9ca3af"/>
    <rect id="Rectangle_13" data-name="Rectangle 13" width="36" height="36" rx="4" transform="translate(31 141)" fill="#4ade80"/>
    <path id="Path_24" data-name="Path 24" d="M55,152c-.5,0-4,1-4,5.5V161a2,2,0,0,0,2,2h1v4a1,1,0,0,0,2,0V153A1,1,0,0,0,55,152Zm-11,.5a.5.5,0,0,0-.987-.109l-.947,4.259a2.752,2.752,0,0,0,2.434,3.338V167a1,1,0,0,0,2,0v-7.012a2.752,2.752,0,0,0,2.434-3.338l-.947-4.259A.5.5,0,0,0,47,152.5v4.194a.307.307,0,0,1-.612.025L46,152.456a.5.5,0,0,0-.994,0l-.388,4.263a.307.307,0,0,1-.612-.025V152.5Zm1.509,4.75h-.019l.009-.022Z" fill="#fff"/>
    <path id="Path_25" data-name="Path 25" d="M359.807,148.193a1.144,1.144,0,0,1,0,1.617l-6.855,6.855a1.143,1.143,0,1,1-1.617-1.617L357.383,149l-6.045-6.048a1.144,1.144,0,1,1,1.618-1.617l6.854,6.855Z" fill="#e5e7eb"/>
    <rect id="Rectangle_14" data-name="Rectangle 14" width="345" height="1" rx="0.5" transform="translate(31 303)" fill="#e5e7eb"/>
    <path id="Path_26" data-name="Path 26" d="M87.992,271a1.03,1.03,0,0,1-.736-.272.958.958,0,0,1-.288-.7v-9.28h2.08v9.28a.933.933,0,0,1-.3.7A1.052,1.052,0,0,1,87.992,271Zm-3.536-9.36a1.02,1.02,0,0,1-.7-.256.881.881,0,0,1-.272-.672.831.831,0,0,1,.272-.656,1.02,1.02,0,0,1,.7-.256h7.1a.963.963,0,0,1,.688.256.928.928,0,0,1,0,1.344,1,1,0,0,1-.688.24ZM94.543,271a.934.934,0,0,1-.688-.272.988.988,0,0,1-.272-.7v-6.608a.933.933,0,0,1,.272-.688.966.966,0,0,1,1.376,0,.933.933,0,0,1,.272.688v1.5l-.112-1.072a2.466,2.466,0,0,1,.448-.672,2.574,2.574,0,0,1,.64-.5,2.7,2.7,0,0,1,.752-.3,3.418,3.418,0,0,1,.8-.1,1.194,1.194,0,0,1,.8.272.8.8,0,0,1,.336.64.975.975,0,0,1-.272.768.914.914,0,0,1-.592.224,1.376,1.376,0,0,1-.56-.112,1.307,1.307,0,0,0-.56-.112,1.378,1.378,0,0,0-.592.144,1.61,1.61,0,0,0-.544.416,2.437,2.437,0,0,0-.4.72,3.041,3.041,0,0,0-.144.992v3.792a.988.988,0,0,1-.272.7A.934.934,0,0,1,94.543,271Zm13.277-8.72a.932.932,0,0,1,.688.272.949.949,0,0,1,.272.7v6.768a.985.985,0,0,1-.272.7,1.006,1.006,0,0,1-1.376,0,.989.989,0,0,1-.272-.7v-.784l.352.144a.93.93,0,0,1-.224.512,3.175,3.175,0,0,1-.608.576,3.9,3.9,0,0,1-.912.5,3.161,3.161,0,0,1-1.12.192,3.7,3.7,0,0,1-2-.56,4.136,4.136,0,0,1-1.424-1.568,5.022,5.022,0,0,1-.512-2.3,4.958,4.958,0,0,1,.512-2.3,4.028,4.028,0,0,1,1.408-1.568,3.491,3.491,0,0,1,1.952-.576,3.7,3.7,0,0,1,2.256.736,2.711,2.711,0,0,1,.656.656.978.978,0,0,1,.24.544l-.576.208v-1.168a.934.934,0,0,1,.272-.688A.907.907,0,0,1,107.82,262.28Zm-3.232,7.12a2.165,2.165,0,0,0,1.232-.352,2.324,2.324,0,0,0,.816-.96,2.994,2.994,0,0,0,.3-1.36,3.03,3.03,0,0,0-.3-1.376,2.324,2.324,0,0,0-.816-.96,2.165,2.165,0,0,0-1.232-.352,2.14,2.14,0,0,0-1.216.352,2.443,2.443,0,0,0-.832.96,3.175,3.175,0,0,0-.288,1.376,3.138,3.138,0,0,0,.288,1.36,2.443,2.443,0,0,0,.832.96A2.14,2.14,0,0,0,104.588,269.4Zm11.327-7.12a2.778,2.778,0,0,1,1.792.5,2.458,2.458,0,0,1,.848,1.328,6.456,6.456,0,0,1,.24,1.824v4.1a.985.985,0,0,1-.272.7,1.006,1.006,0,0,1-1.376,0,.989.989,0,0,1-.272-.7v-4.1a2.875,2.875,0,0,0-.144-.944,1.271,1.271,0,0,0-.48-.688,1.69,1.69,0,0,0-1.008-.256,2.16,2.16,0,0,0-1.088.256,1.811,1.811,0,0,0-.672.688,1.962,1.962,0,0,0-.224.944v4.1a.985.985,0,0,1-.272.7,1.006,1.006,0,0,1-1.376,0,.989.989,0,0,1-.272-.7v-6.608a.934.934,0,0,1,.272-.688.966.966,0,0,1,1.376,0,.93.93,0,0,1,.272.688v.688l-.24-.048a3,3,0,0,1,.416-.576,3.833,3.833,0,0,1,.64-.592,3.11,3.11,0,0,1,.832-.432A2.832,2.832,0,0,1,115.915,262.28Zm4.94,7.392a.89.89,0,0,1-.144-.576.77.77,0,0,1,.416-.608.827.827,0,0,1,.544-.128.873.873,0,0,1,.56.288,3.774,3.774,0,0,0,.976.72,2.844,2.844,0,0,0,1.28.256c.16-.011.336-.032.528-.064a1.059,1.059,0,0,0,.5-.256.813.813,0,0,0,.224-.624.7.7,0,0,0-.24-.56,2.009,2.009,0,0,0-.64-.352q-.384-.144-.864-.272-.5-.144-1.024-.32a4.509,4.509,0,0,1-.944-.448,2.154,2.154,0,0,1-.976-1.92,2.107,2.107,0,0,1,.448-1.36,2.933,2.933,0,0,1,1.152-.864,3.821,3.821,0,0,1,1.5-.3,4.567,4.567,0,0,1,1.04.128,3.739,3.739,0,0,1,1.04.384,2.493,2.493,0,0,1,.832.688,1.145,1.145,0,0,1,.208.576.687.687,0,0,1-.3.608.8.8,0,0,1-.56.176.878.878,0,0,1-.528-.224,1.886,1.886,0,0,0-.736-.56,2.518,2.518,0,0,0-1.568-.144.929.929,0,0,0-.48.24.714.714,0,0,0-.208.576.772.772,0,0,0,.24.592,2,2,0,0,0,.64.352c.277.085.57.171.88.256s.645.187.976.3a3.876,3.876,0,0,1,.912.464,2.188,2.188,0,0,1,.672.752,2.312,2.312,0,0,1,.256,1.152,2.1,2.1,0,0,1-.48,1.392,3.113,3.113,0,0,1-1.2.88,3.933,3.933,0,0,1-1.472.288,5.854,5.854,0,0,1-1.888-.32A3.314,3.314,0,0,1,120.855,269.672Zm15.827-7.392a.932.932,0,0,1,.688.272.949.949,0,0,1,.272.7v6.768a.985.985,0,0,1-.272.7,1.006,1.006,0,0,1-1.376,0,.989.989,0,0,1-.272-.7v-.784l.352.144a.93.93,0,0,1-.224.512,3.175,3.175,0,0,1-.608.576,3.9,3.9,0,0,1-.912.5,3.161,3.161,0,0,1-1.12.192,3.7,3.7,0,0,1-2-.56,4.137,4.137,0,0,1-1.424-1.568,5.022,5.022,0,0,1-.512-2.3,4.958,4.958,0,0,1,.512-2.3,4.028,4.028,0,0,1,1.408-1.568,3.491,3.491,0,0,1,1.952-.576,3.7,3.7,0,0,1,2.256.736,2.711,2.711,0,0,1,.656.656.978.978,0,0,1,.24.544l-.576.208v-1.168a.934.934,0,0,1,.272-.688A.907.907,0,0,1,136.682,262.28Zm-3.232,7.12a2.165,2.165,0,0,0,1.232-.352,2.324,2.324,0,0,0,.816-.96,2.994,2.994,0,0,0,.3-1.36,3.03,3.03,0,0,0-.3-1.376,2.324,2.324,0,0,0-.816-.96,2.165,2.165,0,0,0-1.232-.352,2.14,2.14,0,0,0-1.216.352,2.444,2.444,0,0,0-.832.96,3.175,3.175,0,0,0-.288,1.376,3.138,3.138,0,0,0,.288,1.36,2.444,2.444,0,0,0,.832.96A2.14,2.14,0,0,0,133.45,269.4Zm10.559-7.12a5.8,5.8,0,0,1,1.584.192,2.453,2.453,0,0,1,1.056.544,1.046,1.046,0,0,1,.384.816,1.079,1.079,0,0,1-.192.608.642.642,0,0,1-.56.272,1.269,1.269,0,0,1-.432-.064,1.364,1.364,0,0,1-.288-.192,1.637,1.637,0,0,0-.3-.208,1.378,1.378,0,0,0-.5-.144,2.657,2.657,0,0,0-.48-.064,2.617,2.617,0,0,0-1.392.352,2.361,2.361,0,0,0-.864.96,2.981,2.981,0,0,0-.3,1.376,3.043,3.043,0,0,0,.3,1.376,2.554,2.554,0,0,0,.864.944,2.353,2.353,0,0,0,1.28.352,4.248,4.248,0,0,0,.688-.048,1.706,1.706,0,0,0,.48-.144,2.824,2.824,0,0,0,.4-.272.823.823,0,0,1,.528-.144.782.782,0,0,1,.64.272.9.9,0,0,1-.224,1.376,3.832,3.832,0,0,1-1.184.528,6.068,6.068,0,0,1-1.568.192,4.075,4.075,0,0,1-2.192-.576,4.029,4.029,0,0,1-1.44-1.6,5.05,5.05,0,0,1-.5-2.256,4.83,4.83,0,0,1,.528-2.3,3.981,3.981,0,0,1,1.488-1.568A4.178,4.178,0,0,1,144.009,262.28Zm5.081.32h3.792a.875.875,0,0,1,.9.9.853.853,0,0,1-.256.624.9.9,0,0,1-.64.24H149.09a.875.875,0,0,1-.9-.9.8.8,0,0,1,.256-.608A.866.866,0,0,1,149.09,262.6Zm1.712-2a.857.857,0,0,1,.672.288.934.934,0,0,1,.272.688v7.12a.746.746,0,0,0,.08.368.562.562,0,0,0,.24.208.885.885,0,0,0,.336.064.934.934,0,0,0,.352-.064.814.814,0,0,1,.368-.08.516.516,0,0,1,.4.208.818.818,0,0,1,.192.576.846.846,0,0,1-.5.736,1.986,1.986,0,0,1-1.04.288,6.61,6.61,0,0,1-.752-.048,2.279,2.279,0,0,1-.768-.272,1.744,1.744,0,0,1-.592-.672,2.632,2.632,0,0,1-.24-1.232v-7.2a.93.93,0,0,1,.272-.688A.957.957,0,0,1,150.8,260.6Zm7.027,9.424a.989.989,0,0,1-.272.7,1.006,1.006,0,0,1-1.376,0,.985.985,0,0,1-.272-.7v-6.608a.93.93,0,0,1,.272-.688.966.966,0,0,1,1.376,0,.934.934,0,0,1,.272.688Zm-.976-8.624a1.272,1.272,0,0,1-.768-.176.749.749,0,0,1-.224-.624v-.3a.7.7,0,0,1,.24-.624,1.362,1.362,0,0,1,.768-.176,1.31,1.31,0,0,1,.784.176.752.752,0,0,1,.224.624v.3a.746.746,0,0,1-.24.64A1.458,1.458,0,0,1,156.853,261.4Zm11.733,5.328a4.491,4.491,0,0,1-.592,2.32,4.136,4.136,0,0,1-1.568,1.552,4.328,4.328,0,0,1-2.192.56,4.415,4.415,0,0,1-2.208-.56,4.289,4.289,0,0,1-1.568-1.552,4.592,4.592,0,0,1-.576-2.32,4.5,4.5,0,0,1,.576-2.3,4.25,4.25,0,0,1,1.568-1.568,4.315,4.315,0,0,1,2.208-.576,4.231,4.231,0,0,1,2.192.576,4.1,4.1,0,0,1,1.568,1.568A4.4,4.4,0,0,1,168.586,266.728Zm-1.92,0a2.808,2.808,0,0,0-.336-1.408,2.354,2.354,0,0,0-.88-.944,2.268,2.268,0,0,0-1.216-.336,2.349,2.349,0,0,0-1.232.336,2.508,2.508,0,0,0-.88.944,2.925,2.925,0,0,0-.32,1.408,2.983,2.983,0,0,0,.32,1.408,2.535,2.535,0,0,0,.88.928,2.349,2.349,0,0,0,1.232.336,2.268,2.268,0,0,0,1.216-.336,2.376,2.376,0,0,0,.88-.928A2.864,2.864,0,0,0,166.666,266.728Zm8.656-4.448a2.778,2.778,0,0,1,1.792.5,2.458,2.458,0,0,1,.848,1.328,6.456,6.456,0,0,1,.24,1.824v4.1a.985.985,0,0,1-.272.7,1.006,1.006,0,0,1-1.376,0,.989.989,0,0,1-.272-.7v-4.1a2.876,2.876,0,0,0-.144-.944,1.271,1.271,0,0,0-.48-.688,1.69,1.69,0,0,0-1.008-.256,2.16,2.16,0,0,0-1.088.256,1.812,1.812,0,0,0-.672.688,1.962,1.962,0,0,0-.224.944v4.1a.985.985,0,0,1-.272.7,1.006,1.006,0,0,1-1.376,0,.989.989,0,0,1-.272-.7v-6.608a.934.934,0,0,1,.272-.688.966.966,0,0,1,1.376,0,.93.93,0,0,1,.272.688v.688l-.24-.048a3,3,0,0,1,.416-.576,3.834,3.834,0,0,1,.64-.592,3.11,3.11,0,0,1,.832-.432A2.832,2.832,0,0,1,175.322,262.28Zm4.939,7.392a.9.9,0,0,1-.144-.576.774.774,0,0,1,.416-.608.829.829,0,0,1,.544-.128.87.87,0,0,1,.56.288,3.808,3.808,0,0,0,.976.72,2.847,2.847,0,0,0,1.28.256c.16-.011.336-.032.528-.064a1.054,1.054,0,0,0,.5-.256.81.81,0,0,0,.224-.624.7.7,0,0,0-.24-.56,2,2,0,0,0-.64-.352q-.384-.144-.864-.272-.5-.144-1.024-.32a4.533,4.533,0,0,1-.944-.448,2.154,2.154,0,0,1-.976-1.92,2.112,2.112,0,0,1,.448-1.36,2.948,2.948,0,0,1,1.152-.864,3.825,3.825,0,0,1,1.5-.3,4.554,4.554,0,0,1,1.04.128,3.716,3.716,0,0,1,1.04.384,2.483,2.483,0,0,1,.832.688,1.126,1.126,0,0,1,.208.576.685.685,0,0,1-.3.608.8.8,0,0,1-.56.176.884.884,0,0,1-.528-.224,1.872,1.872,0,0,0-.736-.56,2.518,2.518,0,0,0-1.568-.144.937.937,0,0,0-.48.24.717.717,0,0,0-.208.576.772.772,0,0,0,.24.592,2.009,2.009,0,0,0,.64.352c.278.085.571.171.88.256s.646.187.976.3a3.838,3.838,0,0,1,.912.464,2.169,2.169,0,0,1,.672.752,2.3,2.3,0,0,1,.256,1.152,2.1,2.1,0,0,1-.48,1.392,3.113,3.113,0,0,1-1.2.88,3.929,3.929,0,0,1-1.472.288,5.863,5.863,0,0,1-1.888-.32A3.318,3.318,0,0,1,180.261,269.672Z" fill="#0f172a"/>
    <path id="Path_27" data-name="Path 27" d="M89.864,279.588a.642.642,0,0,1,.5.216.723.723,0,0,1,.192.516v4.344a3.536,3.536,0,0,1-.432,1.764,3.054,3.054,0,0,1-1.164,1.2,3.379,3.379,0,0,1-1.728.432,3.445,3.445,0,0,1-1.74-.432,3.139,3.139,0,0,1-1.176-1.2,3.617,3.617,0,0,1-.42-1.764V280.32a.679.679,0,0,1,.216-.516.748.748,0,0,1,.552-.216.678.678,0,0,1,.492.216.663.663,0,0,1,.228.516v4.344a2.08,2.08,0,0,0,.252,1.044,1.9,1.9,0,0,0,.684.672,1.85,1.85,0,0,0,.912.24,1.987,1.987,0,0,0,.96-.24,1.863,1.863,0,0,0,1-1.716V280.32a.751.751,0,0,1,.18-.516A.606.606,0,0,1,89.864,279.588Zm6.169,1.872a2.087,2.087,0,0,1,1.344.372,1.845,1.845,0,0,1,.636,1,4.842,4.842,0,0,1,.18,1.368v3.072a.74.74,0,0,1-.2.528.755.755,0,0,1-1.032,0,.74.74,0,0,1-.2-.528V284.2a2.158,2.158,0,0,0-.108-.708.955.955,0,0,0-.36-.516,1.271,1.271,0,0,0-.756-.192,1.62,1.62,0,0,0-.816.192,1.357,1.357,0,0,0-.5.516,1.47,1.47,0,0,0-.168.708v3.072a.74.74,0,0,1-.2.528.755.755,0,0,1-1.032,0,.74.74,0,0,1-.2-.528v-4.956a.7.7,0,0,1,.2-.516.724.724,0,0,1,1.032,0,.7.7,0,0,1,.2.516v.516l-.18-.036a2.224,2.224,0,0,1,.312-.432,2.848,2.848,0,0,1,.48-.444,2.307,2.307,0,0,1,.624-.324A2.114,2.114,0,0,1,96.033,281.46Zm6.932,0a4.35,4.35,0,0,1,1.188.144,1.845,1.845,0,0,1,.792.408.784.784,0,0,1,.288.612.809.809,0,0,1-.144.456.482.482,0,0,1-.42.2.954.954,0,0,1-.324-.048,1.016,1.016,0,0,1-.216-.144,1.264,1.264,0,0,0-.228-.156,1.036,1.036,0,0,0-.372-.108,2.02,2.02,0,0,0-.36-.048,1.965,1.965,0,0,0-1.044.264,1.764,1.764,0,0,0-.648.72,2.229,2.229,0,0,0-.228,1.032,2.276,2.276,0,0,0,.228,1.032,1.907,1.907,0,0,0,.648.708,1.766,1.766,0,0,0,.96.264,3.191,3.191,0,0,0,.516-.036,1.28,1.28,0,0,0,.36-.108,2.184,2.184,0,0,0,.3-.2.615.615,0,0,1,.4-.108.586.586,0,0,1,.48.2.676.676,0,0,1-.168,1.032,2.871,2.871,0,0,1-.888.4,4.555,4.555,0,0,1-1.176.144,3.054,3.054,0,0,1-1.644-.432,3.012,3.012,0,0,1-1.08-1.2,3.786,3.786,0,0,1-.372-1.692,3.628,3.628,0,0,1,.4-1.728,2.983,2.983,0,0,1,1.116-1.176A3.133,3.133,0,0,1,102.965,281.46Zm9,0a.7.7,0,0,1,.516.2.714.714,0,0,1,.2.528v5.076a.74.74,0,0,1-.2.528.755.755,0,0,1-1.032,0,.74.74,0,0,1-.2-.528v-.588l.264.108a.7.7,0,0,1-.168.384,2.389,2.389,0,0,1-.456.432,2.915,2.915,0,0,1-.684.372,2.375,2.375,0,0,1-.84.144,2.773,2.773,0,0,1-1.5-.42,3.1,3.1,0,0,1-1.068-1.176,3.763,3.763,0,0,1-.384-1.728,3.717,3.717,0,0,1,.384-1.728,3.018,3.018,0,0,1,1.056-1.176,2.617,2.617,0,0,1,1.464-.432,2.773,2.773,0,0,1,.948.156,2.733,2.733,0,0,1,.744.4,2.042,2.042,0,0,1,.492.492.733.733,0,0,1,.18.408l-.432.156v-.876a.7.7,0,0,1,.2-.516A.679.679,0,0,1,111.96,281.46Zm-2.424,5.34a1.627,1.627,0,0,0,.924-.264,1.74,1.74,0,0,0,.612-.72,2.249,2.249,0,0,0,.228-1.02,2.276,2.276,0,0,0-.228-1.032,1.739,1.739,0,0,0-.612-.72,1.627,1.627,0,0,0-.924-.264,1.606,1.606,0,0,0-.912.264,1.827,1.827,0,0,0-.624.72,2.382,2.382,0,0,0-.216,1.032,2.353,2.353,0,0,0,.216,1.02,1.827,1.827,0,0,0,.624.72A1.606,1.606,0,0,0,109.536,286.8Zm5.135-5.1h2.844a.656.656,0,0,1,.672.672.637.637,0,0,1-.192.468.675.675,0,0,1-.48.18h-2.844a.656.656,0,0,1-.672-.672.6.6,0,0,1,.192-.456A.651.651,0,0,1,114.671,281.7Zm1.284-1.5a.642.642,0,0,1,.5.216.7.7,0,0,1,.2.516v5.34a.564.564,0,0,0,.06.276.42.42,0,0,0,.18.156.673.673,0,0,0,.252.048.705.705,0,0,0,.264-.048.609.609,0,0,1,.276-.06.387.387,0,0,1,.3.156.613.613,0,0,1,.144.432.634.634,0,0,1-.372.552,1.489,1.489,0,0,1-.78.216,4.959,4.959,0,0,1-.564-.036,1.713,1.713,0,0,1-.576-.2,1.314,1.314,0,0,1-.444-.5,1.974,1.974,0,0,1-.18-.924v-5.4a.7.7,0,0,1,.2-.516A.718.718,0,0,1,115.955,280.2Zm6.879,7.92a3.6,3.6,0,0,1-1.776-.42,3.037,3.037,0,0,1-1.152-1.164,3.424,3.424,0,0,1-.4-1.656,3.646,3.646,0,0,1,.432-1.836,3.13,3.13,0,0,1,1.152-1.176,2.958,2.958,0,0,1,1.5-.408,2.691,2.691,0,0,1,1.152.252,3.1,3.1,0,0,1,.972.7,3.192,3.192,0,0,1,.66,1.008,3.02,3.02,0,0,1,.252,1.224.616.616,0,0,1-.228.468.763.763,0,0,1-.5.18h-4.584l-.36-1.2h4.4l-.264.24V284a1.075,1.075,0,0,0-.252-.624,1.671,1.671,0,0,0-1.248-.6,2.274,2.274,0,0,0-.672.1,1.287,1.287,0,0,0-.54.324,1.572,1.572,0,0,0-.36.612,3.033,3.033,0,0,0-.132.972,2.169,2.169,0,0,0,.264,1.1,1.962,1.962,0,0,0,.7.684,1.927,1.927,0,0,0,.912.228,2.789,2.789,0,0,0,.708-.072,1.631,1.631,0,0,0,.42-.168q.168-.108.3-.18a.916.916,0,0,1,.408-.108.564.564,0,0,1,.432.18.576.576,0,0,1,.18.42.749.749,0,0,1-.336.588,2.868,2.868,0,0,1-.876.468A3.588,3.588,0,0,1,122.834,288.12Zm7.02-6.66a2.635,2.635,0,0,1,.924.156,2.581,2.581,0,0,1,.72.4,2.124,2.124,0,0,1,.48.492.733.733,0,0,1,.18.408l-.312.156v-.876a.7.7,0,0,1,.2-.516.679.679,0,0,1,.516-.216.7.7,0,0,1,.516.2.714.714,0,0,1,.2.528v5.34a2.767,2.767,0,0,1-.456,1.668,2.46,2.46,0,0,1-1.176.912,4.036,4.036,0,0,1-2.2.228q-.384-.06-.732-.144a4.109,4.109,0,0,1-.528-.156,1.046,1.046,0,0,1-.5-.4.586.586,0,0,1-.048-.492.777.777,0,0,1,.348-.48.614.614,0,0,1,.5-.024q.12.036.4.144a5.289,5.289,0,0,0,.6.192,2.181,2.181,0,0,0,.588.1,2.054,2.054,0,0,0,1.332-.36,1.226,1.226,0,0,0,.432-1V286.68l.144.108a.7.7,0,0,1-.168.384,2.084,2.084,0,0,1-.444.432,2.735,2.735,0,0,1-.66.372,2.305,2.305,0,0,1-.816.144,2.876,2.876,0,0,1-1.536-.42,3.065,3.065,0,0,1-1.08-1.176,3.669,3.669,0,0,1-.4-1.728,3.624,3.624,0,0,1,.4-1.728,2.986,2.986,0,0,1,1.068-1.176A2.715,2.715,0,0,1,129.854,281.46Zm.228,1.32a1.706,1.706,0,0,0-.948.264,1.793,1.793,0,0,0-.636.72,2.276,2.276,0,0,0-.228,1.032,2.249,2.249,0,0,0,.228,1.02,1.794,1.794,0,0,0,.636.72,1.706,1.706,0,0,0,.948.264,1.728,1.728,0,0,0,.96-.264,1.794,1.794,0,0,0,.636-.72,2.249,2.249,0,0,0,.228-1.02,2.276,2.276,0,0,0-.228-1.032,1.793,1.793,0,0,0-.636-.72A1.728,1.728,0,0,0,130.082,282.78ZM141.2,284.8a3.371,3.371,0,0,1-.444,1.74,3.1,3.1,0,0,1-1.176,1.164,3.244,3.244,0,0,1-1.644.42,3.31,3.31,0,0,1-1.656-.42,3.216,3.216,0,0,1-1.176-1.164,3.445,3.445,0,0,1-.432-1.74,3.379,3.379,0,0,1,.432-1.728,3.189,3.189,0,0,1,1.176-1.176,3.238,3.238,0,0,1,1.656-.432,3.173,3.173,0,0,1,1.644.432,3.075,3.075,0,0,1,1.176,1.176A3.307,3.307,0,0,1,141.2,284.8Zm-1.44,0a2.105,2.105,0,0,0-.252-1.056,1.764,1.764,0,0,0-.66-.708,1.7,1.7,0,0,0-.912-.252,1.762,1.762,0,0,0-.924.252,1.881,1.881,0,0,0-.66.708,2.19,2.19,0,0,0-.24,1.056,2.234,2.234,0,0,0,.24,1.056,1.905,1.905,0,0,0,.66.7,1.762,1.762,0,0,0,.924.252,1.7,1.7,0,0,0,.912-.252,1.784,1.784,0,0,0,.66-.7A2.148,2.148,0,0,0,139.756,284.8Zm3.78,3.2a.7.7,0,0,1-.516-.2.74.74,0,0,1-.2-.528v-4.956a.7.7,0,0,1,.2-.516.724.724,0,0,1,1.032,0,.7.7,0,0,1,.2.516v1.128l-.084-.8a1.85,1.85,0,0,1,.336-.5,1.936,1.936,0,0,1,.48-.372,2.036,2.036,0,0,1,.564-.228,2.563,2.563,0,0,1,.6-.072.894.894,0,0,1,.6.2.6.6,0,0,1,.252.48.731.731,0,0,1-.2.576.684.684,0,0,1-.444.168,1.036,1.036,0,0,1-.42-.084.984.984,0,0,0-.42-.084,1.034,1.034,0,0,0-.444.108,1.21,1.21,0,0,0-.408.312,1.827,1.827,0,0,0-.3.54,2.282,2.282,0,0,0-.108.744v2.844a.74.74,0,0,1-.2.528A.7.7,0,0,1,143.536,288Zm6.2-.732a.74.74,0,0,1-.2.528.755.755,0,0,1-1.032,0,.74.74,0,0,1-.2-.528v-4.956a.7.7,0,0,1,.2-.516.724.724,0,0,1,1.032,0,.7.7,0,0,1,.2.516ZM149,280.8a.953.953,0,0,1-.576-.132.564.564,0,0,1-.168-.468v-.228a.525.525,0,0,1,.18-.468,1.022,1.022,0,0,1,.576-.132.979.979,0,0,1,.588.132.564.564,0,0,1,.168.468v.228a.559.559,0,0,1-.18.48A1.1,1.1,0,0,1,149,280.8Zm6.664,5.88a.651.651,0,0,1,.48.192.612.612,0,0,1,.192.468.637.637,0,0,1-.192.468.651.651,0,0,1-.48.192H151.8a.593.593,0,0,1-.48-.216.62.62,0,0,1-.168-.432,1.6,1.6,0,0,1,.048-.312.891.891,0,0,1,.18-.324l2.988-3.864-.024.168h-2.436a.656.656,0,0,1-.672-.672.6.6,0,0,1,.192-.456.651.651,0,0,1,.48-.192h3.7a.618.618,0,0,1,.468.2.646.646,0,0,1,.168.516,1.277,1.277,0,0,1-.048.24.738.738,0,0,1-.156.288l-2.94,3.8v-.072Zm4.988,1.44a3.6,3.6,0,0,1-1.776-.42,3.037,3.037,0,0,1-1.152-1.164,3.424,3.424,0,0,1-.4-1.656,3.646,3.646,0,0,1,.432-1.836,3.13,3.13,0,0,1,1.152-1.176,2.958,2.958,0,0,1,1.5-.408,2.691,2.691,0,0,1,1.152.252,3.1,3.1,0,0,1,.972.7,3.192,3.192,0,0,1,.66,1.008,3.02,3.02,0,0,1,.252,1.224.616.616,0,0,1-.228.468.763.763,0,0,1-.5.18h-4.584l-.36-1.2h4.4l-.264.24V284a1.075,1.075,0,0,0-.252-.624,1.671,1.671,0,0,0-1.248-.6,2.274,2.274,0,0,0-.672.1,1.287,1.287,0,0,0-.54.324,1.572,1.572,0,0,0-.36.612,3.033,3.033,0,0,0-.132.972,2.169,2.169,0,0,0,.264,1.1,1.962,1.962,0,0,0,.7.684,1.927,1.927,0,0,0,.912.228,2.789,2.789,0,0,0,.708-.072,1.631,1.631,0,0,0,.42-.168q.168-.108.3-.18a.916.916,0,0,1,.408-.108.564.564,0,0,1,.432.18.576.576,0,0,1,.18.42.749.749,0,0,1-.336.588,2.868,2.868,0,0,1-.876.468A3.588,3.588,0,0,1,160.655,288.12Zm9.67-9a.7.7,0,0,1,.516.2.714.714,0,0,1,.2.528v7.416a.74.74,0,0,1-.2.528.755.755,0,0,1-1.032,0,.74.74,0,0,1-.2-.528v-.588l.264.108a.7.7,0,0,1-.168.384,2.389,2.389,0,0,1-.456.432,2.915,2.915,0,0,1-.684.372,2.375,2.375,0,0,1-.84.144,2.773,2.773,0,0,1-1.5-.42,3.1,3.1,0,0,1-1.068-1.176,3.763,3.763,0,0,1-.384-1.728,3.717,3.717,0,0,1,.384-1.728,3.019,3.019,0,0,1,1.056-1.176,2.617,2.617,0,0,1,1.464-.432,2.773,2.773,0,0,1,.948.156,2.733,2.733,0,0,1,.744.4,2.042,2.042,0,0,1,.492.492.733.733,0,0,1,.18.408l-.432.156v-3.216a.7.7,0,0,1,.2-.516A.679.679,0,0,1,170.325,279.12ZM167.9,286.8a1.627,1.627,0,0,0,.924-.264,1.74,1.74,0,0,0,.612-.72,2.249,2.249,0,0,0,.228-1.02,2.276,2.276,0,0,0-.228-1.032,1.739,1.739,0,0,0-.612-.72,1.627,1.627,0,0,0-.924-.264,1.606,1.606,0,0,0-.912.264,1.827,1.827,0,0,0-.624.72,2.382,2.382,0,0,0-.216,1.032,2.353,2.353,0,0,0,.216,1.02,1.827,1.827,0,0,0,.624.72A1.606,1.606,0,0,0,167.9,286.8Z" fill="#9ca3af"/>
    <rect id="Rectangle_15" data-name="Rectangle 15" width="36" height="36" rx="4" transform="translate(31 257)" fill="#c084fc"/>
    <path id="Path_28" data-name="Path 28" d="M39,269.286A2.288,2.288,0,0,1,41.286,267h16a2.288,2.288,0,0,1,2.286,2.286v11.428A2.288,2.288,0,0,1,57.286,283h-16A2.288,2.288,0,0,1,39,280.714Zm4.571,6.857a1.143,1.143,0,1,0-.808-.335A1.145,1.145,0,0,0,43.571,276.143Zm1.143-4.572a1.142,1.142,0,1,0-.335.809A1.144,1.144,0,0,0,44.714,271.571Zm-1.143,8a1.142,1.142,0,1,0-.808-.334A1.144,1.144,0,0,0,43.571,279.571ZM47,270.714a.857.857,0,0,0,0,1.715h8a.857.857,0,0,0,0-1.715Zm0,3.429a.857.857,0,1,0,0,1.714h8a.857.857,0,1,0,0-1.714Zm0,3.428a.857.857,0,0,0,0,1.715h8a.857.857,0,0,0,0-1.715Z" fill="#fff"/>
    <path id="Path_29" data-name="Path 29" d="M359.807,264.193a1.144,1.144,0,0,1,0,1.617l-6.855,6.855a1.143,1.143,0,0,1-1.617-1.617L357.383,265l-6.045-6.048a1.144,1.144,0,1,1,1.618-1.617l6.854,6.855Z" fill="#e5e7eb"/>
    <rect id="Rectangle_16" data-name="Rectangle 16" width="345" height="1" rx="0.5" transform="translate(31 245)" fill="#e5e7eb"/>
    <path id="Path_30" data-name="Path 30" d="M87.992,213a1.03,1.03,0,0,1-.736-.272.958.958,0,0,1-.288-.7v-9.28h2.08v9.28a.933.933,0,0,1-.3.7A1.052,1.052,0,0,1,87.992,213Zm-3.536-9.36a1.02,1.02,0,0,1-.7-.256.881.881,0,0,1-.272-.672.831.831,0,0,1,.272-.656,1.02,1.02,0,0,1,.7-.256h7.1a.963.963,0,0,1,.688.256.928.928,0,0,1,0,1.344,1,1,0,0,1-.688.24ZM94.543,213a.934.934,0,0,1-.688-.272.988.988,0,0,1-.272-.7v-6.608a.933.933,0,0,1,.272-.688.966.966,0,0,1,1.376,0,.933.933,0,0,1,.272.688v1.5l-.112-1.072a2.466,2.466,0,0,1,.448-.672,2.574,2.574,0,0,1,.64-.5,2.705,2.705,0,0,1,.752-.3,3.417,3.417,0,0,1,.8-.1,1.194,1.194,0,0,1,.8.272.8.8,0,0,1,.336.64.975.975,0,0,1-.272.768.914.914,0,0,1-.592.224,1.376,1.376,0,0,1-.56-.112,1.307,1.307,0,0,0-.56-.112,1.378,1.378,0,0,0-.592.144,1.61,1.61,0,0,0-.544.416,2.437,2.437,0,0,0-.4.72,3.041,3.041,0,0,0-.144.992v3.792a.988.988,0,0,1-.272.7A.934.934,0,0,1,94.543,213Zm13.277-8.72a.932.932,0,0,1,.688.272.949.949,0,0,1,.272.7v6.768a.985.985,0,0,1-.272.7,1.006,1.006,0,0,1-1.376,0,.989.989,0,0,1-.272-.7v-.784l.352.144a.93.93,0,0,1-.224.512,3.176,3.176,0,0,1-.608.576,3.9,3.9,0,0,1-.912.5,3.162,3.162,0,0,1-1.12.192,3.7,3.7,0,0,1-2-.56,4.136,4.136,0,0,1-1.424-1.568,5.022,5.022,0,0,1-.512-2.3,4.958,4.958,0,0,1,.512-2.3,4.027,4.027,0,0,1,1.408-1.568,3.491,3.491,0,0,1,1.952-.576,3.7,3.7,0,0,1,2.256.736,2.71,2.71,0,0,1,.656.656.978.978,0,0,1,.24.544l-.576.208v-1.168a.934.934,0,0,1,.272-.688A.907.907,0,0,1,107.82,204.28Zm-3.232,7.12a2.165,2.165,0,0,0,1.232-.352,2.324,2.324,0,0,0,.816-.96,2.994,2.994,0,0,0,.3-1.36,3.03,3.03,0,0,0-.3-1.376,2.324,2.324,0,0,0-.816-.96,2.165,2.165,0,0,0-1.232-.352,2.14,2.14,0,0,0-1.216.352,2.443,2.443,0,0,0-.832.96,3.175,3.175,0,0,0-.288,1.376,3.137,3.137,0,0,0,.288,1.36,2.443,2.443,0,0,0,.832.96A2.14,2.14,0,0,0,104.588,211.4Zm11.327-7.12a2.778,2.778,0,0,1,1.792.5,2.458,2.458,0,0,1,.848,1.328,6.456,6.456,0,0,1,.24,1.824v4.1a.985.985,0,0,1-.272.7,1.006,1.006,0,0,1-1.376,0,.989.989,0,0,1-.272-.7v-4.1a2.876,2.876,0,0,0-.144-.944,1.27,1.27,0,0,0-.48-.688,1.69,1.69,0,0,0-1.008-.256,2.16,2.16,0,0,0-1.088.256,1.811,1.811,0,0,0-.672.688,1.962,1.962,0,0,0-.224.944v4.1a.985.985,0,0,1-.272.7,1.006,1.006,0,0,1-1.376,0,.989.989,0,0,1-.272-.7v-6.608a.934.934,0,0,1,.272-.688.966.966,0,0,1,1.376,0,.93.93,0,0,1,.272.688v.688l-.24-.048a3,3,0,0,1,.416-.576,3.834,3.834,0,0,1,.64-.592,3.11,3.11,0,0,1,.832-.432A2.832,2.832,0,0,1,115.915,204.28Zm4.94,7.392a.89.89,0,0,1-.144-.576.77.77,0,0,1,.416-.608.827.827,0,0,1,.544-.128.873.873,0,0,1,.56.288,3.773,3.773,0,0,0,.976.72,2.844,2.844,0,0,0,1.28.256q.24-.016.528-.064a1.059,1.059,0,0,0,.5-.256.813.813,0,0,0,.224-.624.7.7,0,0,0-.24-.56,2.009,2.009,0,0,0-.64-.352q-.384-.144-.864-.272-.5-.144-1.024-.32a4.508,4.508,0,0,1-.944-.448,2.154,2.154,0,0,1-.976-1.92,2.107,2.107,0,0,1,.448-1.36,2.934,2.934,0,0,1,1.152-.864,3.821,3.821,0,0,1,1.5-.3,4.566,4.566,0,0,1,1.04.128,3.738,3.738,0,0,1,1.04.384,2.493,2.493,0,0,1,.832.688,1.145,1.145,0,0,1,.208.576.687.687,0,0,1-.3.608.8.8,0,0,1-.56.176.878.878,0,0,1-.528-.224,1.886,1.886,0,0,0-.736-.56,2.518,2.518,0,0,0-1.568-.144.929.929,0,0,0-.48.24.714.714,0,0,0-.208.576.772.772,0,0,0,.24.592,2,2,0,0,0,.64.352c.277.085.57.171.88.256s.645.187.976.3a3.876,3.876,0,0,1,.912.464,2.189,2.189,0,0,1,.672.752,2.312,2.312,0,0,1,.256,1.152,2.1,2.1,0,0,1-.48,1.392,3.113,3.113,0,0,1-1.2.88,3.932,3.932,0,0,1-1.472.288,5.854,5.854,0,0,1-1.888-.32A3.313,3.313,0,0,1,120.855,211.672Zm13.126-7.392a3.568,3.568,0,0,1,2,.576,3.884,3.884,0,0,1,1.408,1.552,4.83,4.83,0,0,1,.528,2.3,4.926,4.926,0,0,1-.528,2.32A4.052,4.052,0,0,1,136,212.6a3.512,3.512,0,0,1-1.952.56,3.416,3.416,0,0,1-1.2-.208,4.016,4.016,0,0,1-.992-.528,3.426,3.426,0,0,1-.656-.64,1.093,1.093,0,0,1-.224-.56l.5-.208v4.208a.93.93,0,0,1-.272.688.9.9,0,0,1-.688.288.935.935,0,0,1-.688-.272.953.953,0,0,1-.272-.7v-9.808a.934.934,0,0,1,.272-.688.966.966,0,0,1,1.376,0,.93.93,0,0,1,.272.688v.784l-.272-.144a.869.869,0,0,1,.224-.5,2.938,2.938,0,0,1,.608-.592,3.363,3.363,0,0,1,.88-.5A3.032,3.032,0,0,1,133.981,204.28Zm-.24,1.76a2.167,2.167,0,0,0-1.232.352,2.443,2.443,0,0,0-.832.96,3.072,3.072,0,0,0-.288,1.36,3.245,3.245,0,0,0,.288,1.376,2.443,2.443,0,0,0,.832.96,2.167,2.167,0,0,0,1.232.352,2.089,2.089,0,0,0,1.216-.352,2.324,2.324,0,0,0,.816-.96,3.1,3.1,0,0,0,.3-1.376,2.932,2.932,0,0,0-.3-1.36,2.324,2.324,0,0,0-.816-.96A2.089,2.089,0,0,0,133.741,206.04Zm14.639,2.688a4.491,4.491,0,0,1-.592,2.32,4.128,4.128,0,0,1-1.568,1.552,4.326,4.326,0,0,1-2.192.56,4.42,4.42,0,0,1-2.208-.56,4.3,4.3,0,0,1-1.568-1.552,4.592,4.592,0,0,1-.576-2.32,4.5,4.5,0,0,1,.576-2.3,4.257,4.257,0,0,1,1.568-1.568,4.32,4.32,0,0,1,2.208-.576,4.229,4.229,0,0,1,2.192.576,4.094,4.094,0,0,1,1.568,1.568A4.4,4.4,0,0,1,148.38,208.728Zm-1.92,0a2.807,2.807,0,0,0-.336-1.408,2.347,2.347,0,0,0-.88-.944,2.266,2.266,0,0,0-1.216-.336,2.351,2.351,0,0,0-1.232.336,2.515,2.515,0,0,0-.88.944,2.925,2.925,0,0,0-.32,1.408,2.983,2.983,0,0,0,.32,1.408,2.543,2.543,0,0,0,.88.928,2.351,2.351,0,0,0,1.232.336,2.266,2.266,0,0,0,1.216-.336,2.369,2.369,0,0,0,.88-.928A2.863,2.863,0,0,0,146.46,208.728ZM151.5,213a.932.932,0,0,1-.688-.272.985.985,0,0,1-.272-.7v-6.608a.93.93,0,0,1,.272-.688.966.966,0,0,1,1.376,0,.934.934,0,0,1,.272.688v1.5l-.112-1.072a2.443,2.443,0,0,1,.448-.672,2.569,2.569,0,0,1,.64-.5,2.693,2.693,0,0,1,.752-.3,3.411,3.411,0,0,1,.8-.1,1.2,1.2,0,0,1,.8.272.8.8,0,0,1,.336.64.976.976,0,0,1-.272.768.916.916,0,0,1-.592.224,1.373,1.373,0,0,1-.56-.112,1.308,1.308,0,0,0-.56-.112,1.376,1.376,0,0,0-.592.144,1.6,1.6,0,0,0-.544.416,2.421,2.421,0,0,0-.4.72,3.041,3.041,0,0,0-.144.992v3.792a.989.989,0,0,1-.272.7A.935.935,0,0,1,151.5,213Zm6.553-8.4h3.792a.875.875,0,0,1,.9.9.849.849,0,0,1-.256.624.9.9,0,0,1-.64.24h-3.792a.875.875,0,0,1-.9-.9.8.8,0,0,1,.256-.608A.868.868,0,0,1,158.054,204.6Zm1.712-2a.857.857,0,0,1,.672.288.934.934,0,0,1,.272.688v7.12a.757.757,0,0,0,.08.368.562.562,0,0,0,.24.208.892.892,0,0,0,.336.064.934.934,0,0,0,.352-.064.817.817,0,0,1,.368-.08.515.515,0,0,1,.4.208.818.818,0,0,1,.192.576.844.844,0,0,1-.5.736,1.986,1.986,0,0,1-1.04.288,6.614,6.614,0,0,1-.752-.048,2.28,2.28,0,0,1-.768-.272,1.744,1.744,0,0,1-.592-.672,2.632,2.632,0,0,1-.24-1.232v-7.2a.934.934,0,0,1,.272-.688A.958.958,0,0,1,159.766,202.6Zm12.227,1.68a.934.934,0,0,1,.688.272.953.953,0,0,1,.272.7v6.768a.989.989,0,0,1-.272.7,1.006,1.006,0,0,1-1.376,0,.989.989,0,0,1-.272-.7v-.784l.352.144a.937.937,0,0,1-.224.512,3.176,3.176,0,0,1-.608.576,3.9,3.9,0,0,1-.912.5,3.166,3.166,0,0,1-1.12.192,3.7,3.7,0,0,1-2-.56,4.136,4.136,0,0,1-1.424-1.568,5.022,5.022,0,0,1-.512-2.3,4.958,4.958,0,0,1,.512-2.3,4.02,4.02,0,0,1,1.408-1.568,3.489,3.489,0,0,1,1.952-.576,3.7,3.7,0,0,1,2.256.736,2.71,2.71,0,0,1,.656.656.978.978,0,0,1,.24.544l-.576.208v-1.168a.934.934,0,0,1,.272-.688A.906.906,0,0,1,171.993,204.28Zm-3.232,7.12a2.167,2.167,0,0,0,1.232-.352,2.324,2.324,0,0,0,.816-.96,2.994,2.994,0,0,0,.3-1.36,3.03,3.03,0,0,0-.3-1.376,2.324,2.324,0,0,0-.816-.96,2.167,2.167,0,0,0-1.232-.352,2.138,2.138,0,0,0-1.216.352,2.443,2.443,0,0,0-.832.96,3.175,3.175,0,0,0-.288,1.376,3.137,3.137,0,0,0,.288,1.36,2.443,2.443,0,0,0,.832.96A2.138,2.138,0,0,0,168.761,211.4Zm6.847-6.8H179.4a.875.875,0,0,1,.9.9.849.849,0,0,1-.256.624.9.9,0,0,1-.64.24h-3.792a.875.875,0,0,1-.9-.9.8.8,0,0,1,.256-.608A.868.868,0,0,1,175.608,204.6Zm1.712-2a.857.857,0,0,1,.672.288.934.934,0,0,1,.272.688v7.12a.757.757,0,0,0,.08.368.562.562,0,0,0,.24.208.892.892,0,0,0,.336.064.934.934,0,0,0,.352-.064.817.817,0,0,1,.368-.08.515.515,0,0,1,.4.208.818.818,0,0,1,.192.576.844.844,0,0,1-.5.736,1.986,1.986,0,0,1-1.04.288,6.613,6.613,0,0,1-.752-.048,2.28,2.28,0,0,1-.768-.272,1.744,1.744,0,0,1-.592-.672,2.632,2.632,0,0,1-.24-1.232v-7.2a.934.934,0,0,1,.272-.688A.958.958,0,0,1,177.32,202.6Zm7.027,9.424a.989.989,0,0,1-.272.7,1.006,1.006,0,0,1-1.376,0,.985.985,0,0,1-.272-.7v-6.608a.93.93,0,0,1,.272-.688.966.966,0,0,1,1.376,0,.934.934,0,0,1,.272.688Zm-.976-8.624a1.272,1.272,0,0,1-.768-.176.749.749,0,0,1-.224-.624v-.3a.7.7,0,0,1,.24-.624,1.362,1.362,0,0,1,.768-.176,1.31,1.31,0,0,1,.784.176.752.752,0,0,1,.224.624v.3a.746.746,0,0,1-.24.64A1.458,1.458,0,0,1,183.371,203.4Zm11.733,5.328a4.491,4.491,0,0,1-.592,2.32,4.136,4.136,0,0,1-1.568,1.552,4.328,4.328,0,0,1-2.192.56,4.414,4.414,0,0,1-2.208-.56,4.289,4.289,0,0,1-1.568-1.552,4.592,4.592,0,0,1-.576-2.32,4.5,4.5,0,0,1,.576-2.3,4.25,4.25,0,0,1,1.568-1.568,4.315,4.315,0,0,1,2.208-.576,4.231,4.231,0,0,1,2.192.576,4.1,4.1,0,0,1,1.568,1.568A4.4,4.4,0,0,1,195.1,208.728Zm-1.92,0a2.808,2.808,0,0,0-.336-1.408,2.354,2.354,0,0,0-.88-.944,2.268,2.268,0,0,0-1.216-.336,2.349,2.349,0,0,0-1.232.336,2.507,2.507,0,0,0-.88.944,2.925,2.925,0,0,0-.32,1.408,2.983,2.983,0,0,0,.32,1.408,2.535,2.535,0,0,0,.88.928,2.349,2.349,0,0,0,1.232.336,2.268,2.268,0,0,0,1.216-.336,2.376,2.376,0,0,0,.88-.928A2.864,2.864,0,0,0,193.184,208.728Zm8.656-4.448a2.778,2.778,0,0,1,1.792.5,2.458,2.458,0,0,1,.848,1.328,6.455,6.455,0,0,1,.24,1.824v4.1a.985.985,0,0,1-.272.7,1.006,1.006,0,0,1-1.376,0,.989.989,0,0,1-.272-.7v-4.1a2.876,2.876,0,0,0-.144-.944,1.27,1.27,0,0,0-.48-.688,1.69,1.69,0,0,0-1.008-.256,2.16,2.16,0,0,0-1.088.256,1.811,1.811,0,0,0-.672.688,1.962,1.962,0,0,0-.224.944v4.1a.985.985,0,0,1-.272.7,1.006,1.006,0,0,1-1.376,0,.989.989,0,0,1-.272-.7v-6.608a.934.934,0,0,1,.272-.688.966.966,0,0,1,1.376,0,.93.93,0,0,1,.272.688v.688l-.24-.048a3,3,0,0,1,.416-.576,3.834,3.834,0,0,1,.64-.592,3.11,3.11,0,0,1,.832-.432A2.832,2.832,0,0,1,201.84,204.28Z" fill="#0f172a"/>
    <path id="Path_31" data-name="Path 31" d="M86.6,230.12a5.2,5.2,0,0,1-1.512-.2,3.7,3.7,0,0,1-1.284-.744.947.947,0,0,1-.24-.3.746.746,0,0,1-.084-.336.677.677,0,0,1,.192-.48.666.666,0,0,1,.5-.216.636.636,0,0,1,.408.144,3.868,3.868,0,0,0,.9.564,2.877,2.877,0,0,0,1.116.192,2.425,2.425,0,0,0,.816-.132,1.705,1.705,0,0,0,.6-.372.765.765,0,0,0,.228-.54.908.908,0,0,0-.216-.612,1.594,1.594,0,0,0-.66-.42,4.84,4.84,0,0,0-1.128-.276,5.267,5.267,0,0,1-1.14-.288,2.9,2.9,0,0,1-.828-.5,2.1,2.1,0,0,1-.492-.72,2.5,2.5,0,0,1-.168-.936,2.224,2.224,0,0,1,.4-1.332,2.56,2.56,0,0,1,1.092-.84,3.859,3.859,0,0,1,1.512-.288,4.184,4.184,0,0,1,1.44.24,3.279,3.279,0,0,1,1.092.588.8.8,0,0,1,.348.636.684.684,0,0,1-.2.48.64.64,0,0,1-.48.216.526.526,0,0,1-.324-.108,2.043,2.043,0,0,0-.516-.312,3.872,3.872,0,0,0-.684-.252,2.346,2.346,0,0,0-.672-.108,2.557,2.557,0,0,0-.876.132,1.19,1.19,0,0,0-.528.36.828.828,0,0,0-.18.528.894.894,0,0,0,.2.6,1.563,1.563,0,0,0,.612.372,7.732,7.732,0,0,0,.948.24,9.348,9.348,0,0,1,1.26.312,2.872,2.872,0,0,1,.912.468,1.7,1.7,0,0,1,.54.708,2.621,2.621,0,0,1,.18,1.032,2.146,2.146,0,0,1-.432,1.344,2.759,2.759,0,0,1-1.14.864A3.779,3.779,0,0,1,86.6,230.12Zm.864.648a.738.738,0,0,1-.732.732.666.666,0,0,1-.5-.216.7.7,0,0,1-.2-.516V221.12a.7.7,0,0,1,.2-.516.718.718,0,0,1,.528-.216.642.642,0,0,1,.5.216.7.7,0,0,1,.2.516Zm8.552-2.088a.656.656,0,0,1,.672.672.637.637,0,0,1-.192.468.675.675,0,0,1-.48.18h-4.08a.642.642,0,0,1-.492-.192.691.691,0,0,1-.18-.492.745.745,0,0,1,.216-.528l2.616-2.8a4.273,4.273,0,0,0,.7-.984,1.953,1.953,0,0,0,.264-.876,1.323,1.323,0,0,0-.348-.96,1.205,1.205,0,0,0-.924-.372,1.136,1.136,0,0,0-.468.108,2.009,2.009,0,0,0-.468.3,3.126,3.126,0,0,0-.408.444.64.64,0,0,1-.288.24.841.841,0,0,1-.264.048.75.75,0,0,1-.492-.192.627.627,0,0,1-.216-.468.69.69,0,0,1,.132-.4,3.735,3.735,0,0,1,.348-.4,3.624,3.624,0,0,1,.672-.528,3.3,3.3,0,0,1,.768-.348,2.423,2.423,0,0,1,.768-.132,2.841,2.841,0,0,1,1.392.324,2.18,2.18,0,0,1,.924.9,2.747,2.747,0,0,1,.324,1.368,3.434,3.434,0,0,1-.4,1.476,6.026,6.026,0,0,1-1.044,1.512l-1.62,1.728-.132-.108Zm4.588,1.44a3.748,3.748,0,0,1-.948-.132,2.292,2.292,0,0,1-.828-.408.978.978,0,0,1-.252-.336,1.128,1.128,0,0,1-.084-.408.556.556,0,0,1,.168-.384.681.681,0,0,1,.5-.18,1.018,1.018,0,0,1,.54.228,2.962,2.962,0,0,0,.42.216,1.2,1.2,0,0,0,.468.1,2.258,2.258,0,0,0,1-.2,1.6,1.6,0,0,0,.648-.588,1.643,1.643,0,0,0,.228-.876,1.374,1.374,0,0,0-.216-.78,1.4,1.4,0,0,0-.552-.5,1.526,1.526,0,0,0-.732-.18,1.615,1.615,0,0,0-.648.12,4.926,4.926,0,0,0-.5.252.971.971,0,0,1-.456.12.874.874,0,0,1-.588-.168.775.775,0,0,1-.24-.42,1.356,1.356,0,0,1-.024-.432l.372-2.916a.67.67,0,0,1,.24-.408.732.732,0,0,1,.48-.168h3.468a.656.656,0,0,1,.672.672.637.637,0,0,1-.192.468.675.675,0,0,1-.48.18h-3.1l.132-.108-.324,2.436-.156-.456a.682.682,0,0,1,.312-.228,2.974,2.974,0,0,1,.552-.18,2.348,2.348,0,0,1,.612-.084,2.8,2.8,0,0,1,1.44.372,2.59,2.59,0,0,1,1,1,2.712,2.712,0,0,1,.372,1.416,2.969,2.969,0,0,1-.408,1.572,2.753,2.753,0,0,1-1.152,1.044A3.9,3.9,0,0,1,100.6,230.12Zm15.114-3.324a3.371,3.371,0,0,1-.444,1.74A3.1,3.1,0,0,1,114.1,229.7a3.244,3.244,0,0,1-1.644.42,3.31,3.31,0,0,1-1.656-.42,3.216,3.216,0,0,1-1.176-1.164,3.445,3.445,0,0,1-.432-1.74,3.379,3.379,0,0,1,.432-1.728,3.189,3.189,0,0,1,1.176-1.176,3.238,3.238,0,0,1,1.656-.432,3.173,3.173,0,0,1,1.644.432,3.075,3.075,0,0,1,1.176,1.176A3.307,3.307,0,0,1,115.718,226.8Zm-1.44,0a2.105,2.105,0,0,0-.252-1.056,1.764,1.764,0,0,0-.66-.708,1.7,1.7,0,0,0-.912-.252,1.762,1.762,0,0,0-.924.252,1.881,1.881,0,0,0-.66.708,2.19,2.19,0,0,0-.24,1.056,2.235,2.235,0,0,0,.24,1.056,1.905,1.905,0,0,0,.66.7,1.762,1.762,0,0,0,.924.252,1.7,1.7,0,0,0,.912-.252,1.784,1.784,0,0,0,.66-.7A2.148,2.148,0,0,0,114.278,226.8Zm6.36-5.676a1.869,1.869,0,0,1,.516.072.951.951,0,0,1,.42.24.545.545,0,0,1,.168.42.649.649,0,0,1-.18.48.542.542,0,0,1-.4.168,1.648,1.648,0,0,1-.324-.048,1.566,1.566,0,0,0-.42-.06.74.74,0,0,0-.468.132.691.691,0,0,0-.216.312.905.905,0,0,0-.06.3v6.132a.74.74,0,0,1-.2.528.755.755,0,0,1-1.032,0,.74.74,0,0,1-.2-.528v-6.12a1.939,1.939,0,0,1,.6-1.44A2.476,2.476,0,0,1,120.638,221.12Zm.132,2.58a.651.651,0,0,1,.48.192.612.612,0,0,1,.192.468.651.651,0,0,1-.192.48.675.675,0,0,1-.48.18h-3.18a.675.675,0,0,1-.48-.18.651.651,0,0,1-.192-.48.612.612,0,0,1,.192-.468.651.651,0,0,1,.48-.192Zm8.709,6.42a5.2,5.2,0,0,1-1.512-.2,3.7,3.7,0,0,1-1.284-.744.947.947,0,0,1-.24-.3.746.746,0,0,1-.084-.336.677.677,0,0,1,.192-.48.666.666,0,0,1,.5-.216.636.636,0,0,1,.408.144,3.868,3.868,0,0,0,.9.564,2.877,2.877,0,0,0,1.116.192,2.425,2.425,0,0,0,.816-.132,1.706,1.706,0,0,0,.6-.372.765.765,0,0,0,.228-.54.908.908,0,0,0-.216-.612,1.594,1.594,0,0,0-.66-.42,4.84,4.84,0,0,0-1.128-.276,5.267,5.267,0,0,1-1.14-.288,2.9,2.9,0,0,1-.828-.5,2.1,2.1,0,0,1-.492-.72,2.5,2.5,0,0,1-.168-.936,2.224,2.224,0,0,1,.4-1.332,2.56,2.56,0,0,1,1.092-.84,3.859,3.859,0,0,1,1.512-.288,4.184,4.184,0,0,1,1.44.24,3.279,3.279,0,0,1,1.092.588.8.8,0,0,1,.348.636.684.684,0,0,1-.2.48.64.64,0,0,1-.48.216.526.526,0,0,1-.324-.108,2.043,2.043,0,0,0-.516-.312,3.872,3.872,0,0,0-.684-.252,2.346,2.346,0,0,0-.672-.108,2.557,2.557,0,0,0-.876.132,1.19,1.19,0,0,0-.528.36.828.828,0,0,0-.18.528.894.894,0,0,0,.2.6,1.564,1.564,0,0,0,.612.372,7.731,7.731,0,0,0,.948.24,9.348,9.348,0,0,1,1.26.312,2.872,2.872,0,0,1,.912.468,1.7,1.7,0,0,1,.54.708,2.621,2.621,0,0,1,.18,1.032,2.146,2.146,0,0,1-.432,1.344,2.759,2.759,0,0,1-1.14.864A3.779,3.779,0,0,1,129.479,230.12Zm.864.648a.738.738,0,0,1-.732.732.666.666,0,0,1-.5-.216.7.7,0,0,1-.2-.516V221.12a.7.7,0,0,1,.2-.516.718.718,0,0,1,.528-.216.642.642,0,0,1,.5.216.7.7,0,0,1,.2.516Zm8.553-2.088a.656.656,0,0,1,.672.672.637.637,0,0,1-.192.468.675.675,0,0,1-.48.18h-4.08a.642.642,0,0,1-.492-.192.691.691,0,0,1-.18-.492.745.745,0,0,1,.216-.528l2.616-2.8a4.273,4.273,0,0,0,.7-.984,1.953,1.953,0,0,0,.264-.876,1.323,1.323,0,0,0-.348-.96,1.205,1.205,0,0,0-.924-.372,1.136,1.136,0,0,0-.468.108,2.009,2.009,0,0,0-.468.3,3.126,3.126,0,0,0-.408.444.64.64,0,0,1-.288.24.841.841,0,0,1-.264.048.75.75,0,0,1-.492-.192.627.627,0,0,1-.216-.468.691.691,0,0,1,.132-.4,3.736,3.736,0,0,1,.348-.4,3.624,3.624,0,0,1,.672-.528,3.3,3.3,0,0,1,.768-.348,2.423,2.423,0,0,1,.768-.132,2.841,2.841,0,0,1,1.392.324,2.18,2.18,0,0,1,.924.9,2.747,2.747,0,0,1,.324,1.368,3.434,3.434,0,0,1-.4,1.476,6.026,6.026,0,0,1-1.044,1.512l-1.62,1.728-.132-.108Zm5.38,1.44a2.837,2.837,0,0,1-1.752-.54,3.434,3.434,0,0,1-1.08-1.524,7.027,7.027,0,0,1,0-4.512,3.351,3.351,0,0,1,1.08-1.512,2.794,2.794,0,0,1,1.752-.552,2.744,2.744,0,0,1,1.74.552,3.313,3.313,0,0,1,1.092,1.512,7.027,7.027,0,0,1,0,4.512,3.393,3.393,0,0,1-1.092,1.524A2.785,2.785,0,0,1,144.276,230.12Zm0-1.44a1.275,1.275,0,0,0,.864-.312,2.083,2.083,0,0,0,.576-.96,5.425,5.425,0,0,0,.2-1.608,5.352,5.352,0,0,0-.2-1.608,2,2,0,0,0-.576-.948,1.247,1.247,0,0,0-.864-.324,1.275,1.275,0,0,0-.864.324,2,2,0,0,0-.576.948,5.352,5.352,0,0,0-.2,1.608,5.425,5.425,0,0,0,.2,1.608,2.083,2.083,0,0,0,.576.96A1.3,1.3,0,0,0,144.276,228.68Zm7.731,1.44a2.837,2.837,0,0,1-1.752-.54,3.434,3.434,0,0,1-1.08-1.524,7.027,7.027,0,0,1,0-4.512,3.351,3.351,0,0,1,1.08-1.512,2.794,2.794,0,0,1,1.752-.552,2.744,2.744,0,0,1,1.74.552,3.313,3.313,0,0,1,1.092,1.512,7.027,7.027,0,0,1,0,4.512,3.393,3.393,0,0,1-1.092,1.524A2.785,2.785,0,0,1,152.007,230.12Zm0-1.44a1.275,1.275,0,0,0,.864-.312,2.083,2.083,0,0,0,.576-.96,5.426,5.426,0,0,0,.2-1.608,5.352,5.352,0,0,0-.2-1.608,2,2,0,0,0-.576-.948,1.247,1.247,0,0,0-.864-.324,1.275,1.275,0,0,0-.864.324,2,2,0,0,0-.576.948,5.352,5.352,0,0,0-.2,1.608,5.425,5.425,0,0,0,.2,1.608,2.083,2.083,0,0,0,.576.96A1.3,1.3,0,0,0,152.007,228.68Z" fill="#9ca3af"/>
    <rect id="Rectangle_17" data-name="Rectangle 17" width="36" height="36" rx="4" transform="translate(31 199)" fill="#facc15"/>
    <path id="Path_32" data-name="Path 32" d="M44.829,212.05l-.932,2.664H54.389l-.932-2.664a1.144,1.144,0,0,0-1.078-.764H45.907A1.143,1.143,0,0,0,44.829,212.05Zm-3.414,2.836,1.257-3.59a3.429,3.429,0,0,1,3.236-2.3h6.472a3.429,3.429,0,0,1,3.236,2.3l1.257,3.59A2.289,2.289,0,0,1,58.286,217v6.857A1.142,1.142,0,0,1,57.143,225H56a1.142,1.142,0,0,1-1.143-1.143v-1.714H43.429v1.714A1.142,1.142,0,0,1,42.286,225H41.143A1.142,1.142,0,0,1,40,223.857V217A2.289,2.289,0,0,1,41.414,214.886Zm3.157,3.257a1.143,1.143,0,1,0-.335.808A1.142,1.142,0,0,0,44.571,218.143Zm10.286,1.143a1.143,1.143,0,1,0-.808-.335A1.145,1.145,0,0,0,54.857,219.286Z" fill="#fff"/>
    <path id="Path_33" data-name="Path 33" d="M359.807,206.193a1.144,1.144,0,0,1,0,1.617l-6.855,6.855a1.143,1.143,0,1,1-1.617-1.617L357.383,207l-6.045-6.048a1.144,1.144,0,1,1,1.618-1.617l6.854,6.855Z" fill="#e5e7eb"/>
  </g>
</svg>
